<svg xmlns="http://www.w3.org/2000/svg" xmlns:svg="http://www.w3.org/2000/svg" xmlns:xlink="http://www.w3.org/1999/xlink" id="svg76" width="128" height="128" version="1.1" viewBox="0 0 128 128"><defs id="defs80"><linearGradient id="linearGradient3593" x1="121.849" x2="70.198" y1="90.859" y2="-17.609" gradientTransform="matrix(0.96803161,0,0,0.96803161,2.0459785,2.04598)" gradientUnits="userSpaceOnUse" xlink:href="#a"/><linearGradient id="linearGradient3637" x1="9" x2="119" y1="64" y2="64" gradientUnits="userSpaceOnUse"><stop id="stop2-7" offset="0" stop-color="#151515"/><stop id="stop4-5" offset="1" stop-color="#1e282e"/></linearGradient><linearGradient id="linearGradient930" x1="13" x2="115" y1="64" y2="64" gradientUnits="userSpaceOnUse"><stop id="stop7-3" offset="0" stop-color="#1e282e"/><stop id="stop9-6" offset="1" stop-color="#5a6368"/></linearGradient><filter style="color-interpolation-filters:sRGB" id="filter3642" width="1.16" height="1.16" x="-.08" y="-.08"><feFlood id="feFlood3632" flood-color="#121212" flood-opacity="1" result="flood"/><feComposite id="feComposite3634" in="flood" in2="SourceGraphic" operator="in" result="composite1"/><feGaussianBlur id="feGaussianBlur3636" in="composite1" result="blur" stdDeviation="3.4"/><feOffset id="feOffset3638" dx="0" dy="0" result="offset"/><feComposite id="feComposite3640" in="SourceGraphic" in2="offset" operator="over" result="composite2"/></filter><filter style="color-interpolation-filters:sRGB" id="filter3642-3" width="1.16" height="1.16" x="-.08" y="-.08"><feFlood id="feFlood3632-5" flood-color="#121212" flood-opacity="1" result="flood"/><feComposite id="feComposite3634-6" in="flood" in2="SourceGraphic" operator="in" result="composite1"/><feGaussianBlur id="feGaussianBlur3636-2" in="composite1" result="blur" stdDeviation="3.4"/><feOffset id="feOffset3638-9" dx="0" dy="0" result="offset"/><feComposite id="feComposite3640-1" in="SourceGraphic" in2="offset" operator="over" result="composite2"/></filter><linearGradient id="linearGradient18408" x1="9" x2="119" y1="64" y2="64" gradientUnits="userSpaceOnUse"><stop id="stop2-70" offset="0" stop-color="#151515"/><stop id="stop4-9" offset="1" stop-color="#1e282e" style="stop-color:#454e54;stop-opacity:1"/></linearGradient></defs><linearGradient id="a" x1="9" x2="119" y1="64" y2="64" gradientUnits="userSpaceOnUse"><stop id="stop2" offset="0" stop-color="#151515"/><stop id="stop4" offset="1" stop-color="#1e282e" style="stop-color:#454e54;stop-opacity:1"/></linearGradient><linearGradient id="b" x1="13" x2="115" y1="64" y2="64" gradientUnits="userSpaceOnUse"><stop id="stop7" offset="0" stop-color="#1e282e"/><stop id="stop9" offset="1" stop-color="#5a6368"/></linearGradient><path id="rect3468" d="M 15.000001,7.85417 H 113 c 3.95879,0 7.14583,3.187042 7.14583,7.145833 0,35.048611 0,70.097227 0,105.145827 H 7.8541685 c 0,-35.0486 0,-70.097216 0,-105.145827 0,-3.958791 3.1870415,-7.145833 7.1458325,-7.145833 z" style="fill:url(#linearGradient3593);fill-opacity:1;stroke:none;stroke-width:1.02084"/><path id="rect3468-3" d="M 19.490909,13 H 108.50909 C 112.10505,13 115,15.894945 115,19.490909 V 115 H 13 C 13,83.163636 13,51.327273 13,19.490909 13,15.894945 15.894945,13 19.490909,13 Z" style="fill:#fff;stroke-width:.927277;filter:url(#filter3642)"/><g id="g18223"><g id="g66" fill="#c9c9c9" style="fill:#ddd;fill-opacity:1"><path id="path40" d="m 73 108 h 38 v -2 h -38 z m 0 0" style="fill:#ddd;fill-opacity:1"/><path id="path42" d="m 73 102 h 38 v -2 h -38 z m 0 0" style="fill:#ddd;fill-opacity:1"/><path id="path44" d="m 73 99 h 28 v -2 h -28 z m 0 0" style="fill:#ddd;fill-opacity:1"/><path id="path46" d="m 73 57 h 18 v -2 h -18 z m 0 0" style="fill:#ddd;fill-opacity:1"/><path id="path48" d="m 76 42 h 35 v -2 h -35 z m 0 0" style="fill:#ddd;fill-opacity:1"/><path id="path50" d="m 76 39 h 35 v -2 h -35 z m 0 0" style="fill:#ddd;fill-opacity:1"/><path id="path52" d="m 76 30 h 30 v -2 h -30 z m 0 0" style="fill:#ddd;fill-opacity:1"/><path id="path54" d="m 73 90 h 33 v -2 h -33 z m 0 0" style="fill:#ddd;fill-opacity:1"/><path id="path56" d="m 73 54 h 38 v -2 h -38 z m 0 0" style="fill:#ddd;fill-opacity:1"/><path id="path58" d="m 73 45 h 38 v -2 h -38 z m 0 0" style="fill:#ddd;fill-opacity:1"/><path id="path60" d="m 73 48 h 38 v -2 h -38 z m 0 0" style="fill:#ddd;fill-opacity:1"/><path id="path62" d="m 111 96 h -38 v -2 h 38 z m 0 0" style="fill:#ddd;fill-opacity:1"/><path id="path64" d="m 111 93 h -38 v -2 h 38 z m 0 0" style="fill:#ddd;fill-opacity:1"/></g><path id="path68" fill="#a3a3a3" d="m 78 81 h 26 v -8 h -26 z m 0 0" style="fill:#b8b7b7;fill-opacity:1"/><path id="path70" fill="#a3a3a3" d="m 78 71 h 26 v -8 h -26 z m 0 0" style="fill:#b8b7b7;fill-opacity:1"/></g><g id="g18205"><path id="path22" fill="#c9c9c9" d="m 17 20 h 38 v 2 h -38 z m 0 0" style="fill:#ddd;fill-opacity:1"/><path id="path24" fill="#c9c9c9" d="m 17 26 h 38 v 2 h -38 z m 0 0" style="fill:#ddd;fill-opacity:1"/><path id="path26" fill="#c9c9c9" d="m 17 29 h 28 v 2 h -28 z m 0 0" style="fill:#ddd;fill-opacity:1"/><path id="path28" fill="#c9c9c9" d="m 17 71 h 18 v 2 h -18 z m 0 0" style="fill:#ddd;fill-opacity:1"/><path id="path30" fill="#c9c9c9" d="m 20 98 h 30 v 2 h -30 z m 0 0" style="fill:#ddd;fill-opacity:1"/><path id="path32" fill="#c9c9c9" d="m 17 38 h 33 v 2 h -33 z m 0 0" style="fill:#ddd;fill-opacity:1"/><path id="path34" fill="#c9c9c9" d="m 55 32 h -38 v 2 h 38 z m 0 0" style="fill:#ddd;fill-opacity:1"/><path id="path36" fill="#c9c9c9" d="m 55 35 h -38 v 2 h 38 z m 0 0" style="fill:#ddd;fill-opacity:1"/><path id="path38" fill="#a3a3a3" d="m 25 44 h 20 v 20 h -20 z m 0 0" style="fill:#b8b7b7;fill-opacity:1;stroke:none;stroke-opacity:1"/><path id="path72" fill="none" stroke="#c9c9c9" stroke-width="4.669" d="m 17.832031 85.726562 s 8.277344 -3.183593 12.582031 -2.726562 c 4.804688 0.511719 7.742188 4 12.585938 4 c 4.167969 0 10.832031 -3.179688 10.832031 -3.179688" style="fill:none;fill-opacity:1;stroke:#b8b7b7;stroke-opacity:1"/><path id="path74" fill="none" stroke="#c9c9c9" stroke-width="4.669" d="m 17.832031 92.726562 s 8.277344 -3.183593 12.582031 -2.726562 c 4.804688 0.511719 7.742188 4 12.585938 4 c 4.167969 0 10.832031 -3.179688 10.832031 -3.179688" style="fill:none;fill-opacity:1;stroke:#b8b7b7;stroke-opacity:1"/></g><g id="g1769" transform="matrix(0.95703599,-0.28596362,0.26385324,0.99192689,-19.802357,8.510725)"><path id="path18" fill="#242424" d="m 65.056588,16.236601 7.741278,0.67915 C 75.568652,48.615483 62.324713,101.78779 62.324713,101.78779 l -4.737145,-0.41559 c 2.483911,-29.246629 7.46902,-85.135599 7.46902,-85.135599 z m 0,0" style="fill:#2b2b2b;fill-opacity:1;stroke-width:.949584"/><path id="path20" fill="#515151" d="m 57.34599,104.2107 c 1.298426,-0.92124 3.225841,0.28301 4.84061,0.42467 l 0.576808,7.30411 -7.260913,-0.63701 z m 0,0" style="stroke-width:.949584"/></g></svg>