<svg xmlns="http://www.w3.org/2000/svg" xmlns:svg="http://www.w3.org/2000/svg" xmlns:xlink="http://www.w3.org/1999/xlink" id="svg76" width="128" height="128" version="1.1" viewBox="0 0 128 128"><defs id="defs80"><linearGradient id="linearGradient3593" x1="121.849" x2="70.198" y1="90.859" y2="-17.609" gradientTransform="matrix(0.96803161,0,0,0.96803161,2.0459785,2.04598)" gradientUnits="userSpaceOnUse" xlink:href="#a"/><linearGradient id="linearGradient3637" x1="9" x2="119" y1="64" y2="64" gradientUnits="userSpaceOnUse"><stop id="stop2-7" offset="0" stop-color="#151515"/><stop id="stop4-5" offset="1" stop-color="#1e282e"/></linearGradient><linearGradient id="linearGradient930" x1="13" x2="115" y1="64" y2="64" gradientUnits="userSpaceOnUse"><stop id="stop7-3" offset="0" stop-color="#1e282e"/><stop id="stop9-6" offset="1" stop-color="#5a6368"/></linearGradient><filter style="color-interpolation-filters:sRGB" id="filter3642" width="1.16" height="1.16" x="-.08" y="-.08"><feFlood id="feFlood3632" flood-color="#121212" flood-opacity="1" result="flood"/><feComposite id="feComposite3634" in="flood" in2="SourceGraphic" operator="in" result="composite1"/><feGaussianBlur id="feGaussianBlur3636" in="composite1" result="blur" stdDeviation="3.4"/><feOffset id="feOffset3638" dx="0" dy="0" result="offset"/><feComposite id="feComposite3640" in="SourceGraphic" in2="offset" operator="over" result="composite2"/></filter><filter style="color-interpolation-filters:sRGB" id="filter3642-3" width="1.16" height="1.16" x="-.08" y="-.08"><feFlood id="feFlood3632-5" flood-color="#121212" flood-opacity="1" result="flood"/><feComposite id="feComposite3634-6" in="flood" in2="SourceGraphic" operator="in" result="composite1"/><feGaussianBlur id="feGaussianBlur3636-2" in="composite1" result="blur" stdDeviation="3.4"/><feOffset id="feOffset3638-9" dx="0" dy="0" result="offset"/><feComposite id="feComposite3640-1" in="SourceGraphic" in2="offset" operator="over" result="composite2"/></filter><linearGradient id="linearGradient18408" x1="9" x2="119" y1="64" y2="64" gradientUnits="userSpaceOnUse"><stop id="stop2-70" offset="0" stop-color="#151515"/><stop id="stop4-9" offset="1" stop-color="#1e282e" style="stop-color:#454e54;stop-opacity:1"/></linearGradient><linearGradient id="linearGradient3593-7" x1="121.849" x2="70.198" y1="90.859" y2="-17.609" gradientTransform="matrix(0.9655173,0,0,0.9655173,121.21472,-56.466851)" gradientUnits="userSpaceOnUse" xlink:href="#a"/><filter style="color-interpolation-filters:sRGB" id="filter3642-2" width="1.16" height="1.16" x="-.08" y="-.08"><feFlood id="feFlood3632-9" flood-color="#121212" flood-opacity="1" result="flood"/><feComposite id="feComposite3634-1" in="flood" in2="SourceGraphic" operator="in" result="composite1"/><feGaussianBlur id="feGaussianBlur3636-27" in="composite1" result="blur" stdDeviation="3.4"/><feOffset id="feOffset3638-0" dx="0" dy="0" result="offset"/><feComposite id="feComposite3640-9" in="SourceGraphic" in2="offset" operator="over" result="composite2"/></filter><filter style="color-interpolation-filters:sRGB" id="filter3642-3-3" width="1.16" height="1.16" x="-.08" y="-.08"><feFlood id="feFlood3632-5-6" flood-color="#121212" flood-opacity="1" result="flood"/><feComposite id="feComposite3634-6-0" in="flood" in2="SourceGraphic" operator="in" result="composite1"/><feGaussianBlur id="feGaussianBlur3636-2-6" in="composite1" result="blur" stdDeviation="3.4"/><feOffset id="feOffset3638-9-2" dx="0" dy="0" result="offset"/><feComposite id="feComposite3640-1-6" in="SourceGraphic" in2="offset" operator="over" result="composite2"/></filter><filter id="alpha" width="1" height="1" x="0" y="0" filterUnits="objectBoundingBox"><feColorMatrix id="feColorMatrix1099" in="SourceGraphic" type="matrix" values="0 0 0 0 1 0 0 0 0 1 0 0 0 0 1 0 0 0 1 0"/></filter><mask id="mask0"><g id="g1104" filter="url(#alpha)"><rect style="fill:#000;fill-opacity:.1;stroke:none" id="rect1102" width="128" height="128" x="0" y="0"/></g></mask><clipPath id="clip1"><rect id="rect1107" width="192" height="152" x="0" y="0"/></clipPath><g id="surface10726" clip-path="url(#clip1)"><path style="fill:none;stroke-width:.99;stroke-linecap:butt;stroke-linejoin:miter;stroke:#000;stroke-opacity:1;stroke-dasharray:.99,.99;stroke-miterlimit:4" id="path1110" d="M 123.503906 236 C 123.503906 268.863281 96.863281 295.503906 64 295.503906 C 31.136719 295.503906 4.496094 268.863281 4.496094 236 C 4.496094 203.136719 31.136719 176.496094 64 176.496094 C 96.863281 176.496094 123.503906 203.136719 123.503906 236 Z M 123.503906 236" transform="matrix(1,0,0,1,8,-156)"/></g><mask id="mask1"><g id="g1115" filter="url(#alpha)"><rect style="fill:#000;fill-opacity:.1;stroke:none" id="rect1113" width="128" height="128" x="0" y="0"/></g></mask><clipPath id="clip2"><rect id="rect1118" width="192" height="152" x="0" y="0"/></clipPath><g id="surface10729" clip-path="url(#clip2)"><path style="fill:none;stroke-width:.99;stroke-linecap:butt;stroke-linejoin:miter;stroke:#000;stroke-opacity:1;stroke-dasharray:.99,.99;stroke-miterlimit:4" id="path1121" d="M 29.195312 180.496094 L 98.804688 180.496094 C 103.609375 180.496094 107.503906 184.046875 107.503906 188.425781 L 107.503906 283.574219 C 107.503906 287.953125 103.609375 291.503906 98.804688 291.503906 L 29.195312 291.503906 C 24.390625 291.503906 20.496094 287.953125 20.496094 283.574219 L 20.496094 188.425781 C 20.496094 184.046875 24.390625 180.496094 29.195312 180.496094 Z M 29.195312 180.496094" transform="matrix(1,0,0,1,8,-156)"/></g><mask id="mask2"><g id="g1126" filter="url(#alpha)"><rect style="fill:#000;fill-opacity:.1;stroke:none" id="rect1124" width="128" height="128" x="0" y="0"/></g></mask><clipPath id="clip3"><rect id="rect1129" width="192" height="152" x="0" y="0"/></clipPath><g id="surface10732" clip-path="url(#clip3)"><path style="fill:none;stroke-width:.99;stroke-linecap:butt;stroke-linejoin:miter;stroke:#000;stroke-opacity:1;stroke-dasharray:.99,.99;stroke-miterlimit:4" id="path1132" d="M 20.417969 184.496094 L 107.582031 184.496094 C 111.957031 184.496094 115.503906 188.042969 115.503906 192.417969 L 115.503906 279.582031 C 115.503906 283.957031 111.957031 287.503906 107.582031 287.503906 L 20.417969 287.503906 C 16.042969 287.503906 12.496094 283.957031 12.496094 279.582031 L 12.496094 192.417969 C 12.496094 188.042969 16.042969 184.496094 20.417969 184.496094 Z M 20.417969 184.496094" transform="matrix(1,0,0,1,8,-156)"/></g><mask id="mask3"><g id="g1137" filter="url(#alpha)"><rect style="fill:#000;fill-opacity:.1;stroke:none" id="rect1135" width="128" height="128" x="0" y="0"/></g></mask><clipPath id="clip4"><rect id="rect1140" width="192" height="152" x="0" y="0"/></clipPath><g id="surface10735" clip-path="url(#clip4)"><path style="fill:none;stroke-width:.99;stroke-linecap:butt;stroke-linejoin:miter;stroke:#000;stroke-opacity:1;stroke-dasharray:.99,.99;stroke-miterlimit:4" id="path1143" d="M 16.425781 200.496094 L 111.574219 200.496094 C 115.953125 200.496094 119.503906 204.390625 119.503906 209.195312 L 119.503906 278.804688 C 119.503906 283.609375 115.953125 287.503906 111.574219 287.503906 L 16.425781 287.503906 C 12.046875 287.503906 8.496094 283.609375 8.496094 278.804688 L 8.496094 209.195312 C 8.496094 204.390625 12.046875 200.496094 16.425781 200.496094 Z M 16.425781 200.496094" transform="matrix(1,0,0,1,8,-156)"/></g><mask id="mask5"><g id="g1148" filter="url(#alpha)"><rect style="fill:#000;fill-opacity:.1;stroke:none" id="rect1146" width="128" height="128" x="0" y="0"/></g></mask><clipPath id="clip7"><rect id="rect1151" width="192" height="152" x="0" y="0"/></clipPath><g id="g1156" clip-path="url(#clip7)"><path style="fill:none;stroke-width:.99;stroke-linecap:butt;stroke-linejoin:miter;stroke:#000;stroke-opacity:1;stroke-dasharray:.99,.99;stroke-miterlimit:4" id="path1154" d="M 123.503906 236 C 123.503906 268.863281 96.863281 295.503906 64 295.503906 C 31.136719 295.503906 4.496094 268.863281 4.496094 236 C 4.496094 203.136719 31.136719 176.496094 64 176.496094 C 96.863281 176.496094 123.503906 203.136719 123.503906 236 Z M 123.503906 236" transform="matrix(1,0,0,1,8,-156)"/></g><mask id="mask6"><g id="g1160" filter="url(#alpha)"><rect style="fill:#000;fill-opacity:.1;stroke:none" id="rect1158" width="128" height="128" x="0" y="0"/></g></mask><clipPath id="clip8"><rect id="rect1163" width="192" height="152" x="0" y="0"/></clipPath><g id="g1168" clip-path="url(#clip8)"><path style="fill:none;stroke-width:.99;stroke-linecap:butt;stroke-linejoin:miter;stroke:#000;stroke-opacity:1;stroke-dasharray:.99,.99;stroke-miterlimit:4" id="path1166" d="M 29.195312 180.496094 L 98.804688 180.496094 C 103.609375 180.496094 107.503906 184.046875 107.503906 188.425781 L 107.503906 283.574219 C 107.503906 287.953125 103.609375 291.503906 98.804688 291.503906 L 29.195312 291.503906 C 24.390625 291.503906 20.496094 287.953125 20.496094 283.574219 L 20.496094 188.425781 C 20.496094 184.046875 24.390625 180.496094 29.195312 180.496094 Z M 29.195312 180.496094" transform="matrix(1,0,0,1,8,-156)"/></g><mask id="mask7"><g id="g1172" filter="url(#alpha)"><rect style="fill:#000;fill-opacity:.1;stroke:none" id="rect1170" width="128" height="128" x="0" y="0"/></g></mask><clipPath id="clip9"><rect id="rect1175" width="192" height="152" x="0" y="0"/></clipPath><g id="g1180" clip-path="url(#clip9)"><path style="fill:none;stroke-width:.99;stroke-linecap:butt;stroke-linejoin:miter;stroke:#000;stroke-opacity:1;stroke-dasharray:.99,.99;stroke-miterlimit:4" id="path1178" d="M 20.417969 184.496094 L 107.582031 184.496094 C 111.957031 184.496094 115.503906 188.042969 115.503906 192.417969 L 115.503906 279.582031 C 115.503906 283.957031 111.957031 287.503906 107.582031 287.503906 L 20.417969 287.503906 C 16.042969 287.503906 12.496094 283.957031 12.496094 279.582031 L 12.496094 192.417969 C 12.496094 188.042969 16.042969 184.496094 20.417969 184.496094 Z M 20.417969 184.496094" transform="matrix(1,0,0,1,8,-156)"/></g><mask id="mask8"><g id="g1184" filter="url(#alpha)"><rect style="fill:#000;fill-opacity:.1;stroke:none" id="rect1182" width="128" height="128" x="0" y="0"/></g></mask><clipPath id="clip10"><rect id="rect1187" width="192" height="152" x="0" y="0"/></clipPath><g id="g1192" clip-path="url(#clip10)"><path style="fill:none;stroke-width:.99;stroke-linecap:butt;stroke-linejoin:miter;stroke:#000;stroke-opacity:1;stroke-dasharray:.99,.99;stroke-miterlimit:4" id="path1190" d="M 16.425781 200.496094 L 111.574219 200.496094 C 115.953125 200.496094 119.503906 204.390625 119.503906 209.195312 L 119.503906 278.804688 C 119.503906 283.609375 115.953125 287.503906 111.574219 287.503906 L 16.425781 287.503906 C 12.046875 287.503906 8.496094 283.609375 8.496094 278.804688 L 8.496094 209.195312 C 8.496094 204.390625 12.046875 200.496094 16.425781 200.496094 Z M 16.425781 200.496094" transform="matrix(1,0,0,1,8,-156)"/></g><clipPath id="clip6"><rect id="rect1194" width="128" height="128" x="0" y="0"/></clipPath><g id="surface10750" clip-path="url(#clip6)"><rect style="fill:#f0f0f0;fill-opacity:1;stroke:none" id="rect1197" width="128" height="128" x="0" y="0"/><use id="use1199" mask="url(#mask5)" transform="matrix(1,0,0,1,-8,-16)" xlink:href="#surface10726"/><use id="use1201" mask="url(#mask6)" transform="matrix(1,0,0,1,-8,-16)" xlink:href="#surface10729"/><use id="use1203" mask="url(#mask7)" transform="matrix(1,0,0,1,-8,-16)" xlink:href="#surface10732"/><use id="use1205" mask="url(#mask8)" transform="matrix(1,0,0,1,-8,-16)" xlink:href="#surface10735"/><path style="fill:none;stroke-width:2;stroke-linecap:butt;stroke-linejoin:miter;stroke:#62a0ea;stroke-opacity:1;stroke-miterlimit:4" id="path1207" d="M 0 289 L 128 289" transform="matrix(1,0,0,1,0,-172)"/></g><clipPath id="clip5"><rect id="rect1210" width="128" height="128" x="0" y="0"/></clipPath><g id="surface10753" clip-path="url(#clip5)" filter="url(#alpha)"><use id="use1213" xlink:href="#surface10750"/></g><mask id="mask4"><use id="use1216" xlink:href="#surface10753"/></mask><mask id="mask9"><g id="g1221" filter="url(#alpha)"><rect style="fill:#000;fill-opacity:.8;stroke:none" id="rect1219" width="128" height="128" x="0" y="0"/></g></mask><linearGradient id="linear0" x1="300" x2="428" y1="235" y2="235" gradientTransform="matrix(0.000000000000000023,0.37,-0.98462,0.00000000000000006,295.38501,-30.360001)" gradientUnits="userSpaceOnUse"><stop style="stop-color:#f9f06b;stop-opacity:1" id="stop1224" offset="0"/><stop style="stop-color:#f5c211;stop-opacity:1" id="stop1226" offset="1"/></linearGradient><clipPath id="clip12"><rect id="rect1229" width="128" height="128" x="0" y="0"/></clipPath><g id="surface10747" clip-path="url(#clip12)"><path style="stroke:none;fill-rule:nonzero;fill:url(#linear0)" id="path1232" d="M 128 80.640625 L 128 128 L 0 128 L 0 80.640625 Z M 128 80.640625"/><path style="stroke:none;fill-rule:nonzero;fill:#000;fill-opacity:1" id="path1234" d="M 13.308594 80.640625 L 60.664062 128 L 81.878906 128 L 34.519531 80.640625 Z M 55.730469 80.640625 L 103.09375 128 L 124.308594 128 L 76.945312 80.640625 Z M 98.160156 80.640625 L 128 110.480469 L 128 89.269531 L 119.371094 80.640625 Z M 0 88.546875 L 0 109.761719 L 18.238281 128 L 39.453125 128 Z M 0 88.546875"/></g><clipPath id="clip11"><rect id="rect1237" width="128" height="128" x="0" y="0"/></clipPath><g id="surface10752" clip-path="url(#clip11)"><use id="use1240" mask="url(#mask9)" xlink:href="#surface10747"/></g><filter id="alpha-5" width="1" height="1" x="0" y="0" filterUnits="objectBoundingBox"><feColorMatrix id="feColorMatrix2062" in="SourceGraphic" type="matrix" values="0 0 0 0 1 0 0 0 0 1 0 0 0 0 1 0 0 0 1 0"/></filter><mask id="mask0-6"><g id="g2067" filter="url(#alpha)" style="filter:url(#alpha-5)"><rect style="fill:#000;fill-opacity:.1;stroke:none" id="rect2065" width="128" height="128" x="0" y="0"/></g></mask><clipPath id="clip1-2"><rect id="rect2070" width="192" height="152" x="0" y="0"/></clipPath><g id="surface10726-9" clip-path="url(#clip1-2)"><path style="fill:none;stroke-width:.99;stroke-linecap:butt;stroke-linejoin:miter;stroke:#000;stroke-opacity:1;stroke-dasharray:.99,.99;stroke-miterlimit:4" id="path2073" d="M 123.503906 236 C 123.503906 268.863281 96.863281 295.503906 64 295.503906 C 31.136719 295.503906 4.496094 268.863281 4.496094 236 C 4.496094 203.136719 31.136719 176.496094 64 176.496094 C 96.863281 176.496094 123.503906 203.136719 123.503906 236 Z M 123.503906 236" transform="matrix(1,0,0,1,8,-156)"/></g><mask id="mask1-1"><g id="g2078" filter="url(#alpha)" style="filter:url(#alpha-5)"><rect style="fill:#000;fill-opacity:.1;stroke:none" id="rect2076" width="128" height="128" x="0" y="0"/></g></mask><clipPath id="clip2-2"><rect id="rect2081" width="192" height="152" x="0" y="0"/></clipPath><g id="surface10729-7" clip-path="url(#clip2-2)"><path style="fill:none;stroke-width:.99;stroke-linecap:butt;stroke-linejoin:miter;stroke:#000;stroke-opacity:1;stroke-dasharray:.99,.99;stroke-miterlimit:4" id="path2084" d="M 29.195312 180.496094 L 98.804688 180.496094 C 103.609375 180.496094 107.503906 184.046875 107.503906 188.425781 L 107.503906 283.574219 C 107.503906 287.953125 103.609375 291.503906 98.804688 291.503906 L 29.195312 291.503906 C 24.390625 291.503906 20.496094 287.953125 20.496094 283.574219 L 20.496094 188.425781 C 20.496094 184.046875 24.390625 180.496094 29.195312 180.496094 Z M 29.195312 180.496094" transform="matrix(1,0,0,1,8,-156)"/></g><mask id="mask2-0"><g id="g2089" filter="url(#alpha)" style="filter:url(#alpha-5)"><rect style="fill:#000;fill-opacity:.1;stroke:none" id="rect2087" width="128" height="128" x="0" y="0"/></g></mask><clipPath id="clip3-9"><rect id="rect2092" width="192" height="152" x="0" y="0"/></clipPath><g id="surface10732-3" clip-path="url(#clip3-9)"><path style="fill:none;stroke-width:.99;stroke-linecap:butt;stroke-linejoin:miter;stroke:#000;stroke-opacity:1;stroke-dasharray:.99,.99;stroke-miterlimit:4" id="path2095" d="M 20.417969 184.496094 L 107.582031 184.496094 C 111.957031 184.496094 115.503906 188.042969 115.503906 192.417969 L 115.503906 279.582031 C 115.503906 283.957031 111.957031 287.503906 107.582031 287.503906 L 20.417969 287.503906 C 16.042969 287.503906 12.496094 283.957031 12.496094 279.582031 L 12.496094 192.417969 C 12.496094 188.042969 16.042969 184.496094 20.417969 184.496094 Z M 20.417969 184.496094" transform="matrix(1,0,0,1,8,-156)"/></g><mask id="mask3-6"><g id="g2100" filter="url(#alpha)" style="filter:url(#alpha-5)"><rect style="fill:#000;fill-opacity:.1;stroke:none" id="rect2098" width="128" height="128" x="0" y="0"/></g></mask><clipPath id="clip4-0"><rect id="rect2103" width="192" height="152" x="0" y="0"/></clipPath><g id="surface10735-6" clip-path="url(#clip4-0)"><path style="fill:none;stroke-width:.99;stroke-linecap:butt;stroke-linejoin:miter;stroke:#000;stroke-opacity:1;stroke-dasharray:.99,.99;stroke-miterlimit:4" id="path2106" d="M 16.425781 200.496094 L 111.574219 200.496094 C 115.953125 200.496094 119.503906 204.390625 119.503906 209.195312 L 119.503906 278.804688 C 119.503906 283.609375 115.953125 287.503906 111.574219 287.503906 L 16.425781 287.503906 C 12.046875 287.503906 8.496094 283.609375 8.496094 278.804688 L 8.496094 209.195312 C 8.496094 204.390625 12.046875 200.496094 16.425781 200.496094 Z M 16.425781 200.496094" transform="matrix(1,0,0,1,8,-156)"/></g><mask id="mask5-2"><g id="g2111" filter="url(#alpha)" style="filter:url(#alpha-5)"><rect style="fill:#000;fill-opacity:.1;stroke:none" id="rect2109" width="128" height="128" x="0" y="0"/></g></mask><clipPath id="clip7-6"><rect id="rect2114" width="192" height="152" x="0" y="0"/></clipPath><g id="g2119" clip-path="url(#clip7-6)"><path style="fill:none;stroke-width:.99;stroke-linecap:butt;stroke-linejoin:miter;stroke:#000;stroke-opacity:1;stroke-dasharray:.99,.99;stroke-miterlimit:4" id="path2117" d="M 123.503906 236 C 123.503906 268.863281 96.863281 295.503906 64 295.503906 C 31.136719 295.503906 4.496094 268.863281 4.496094 236 C 4.496094 203.136719 31.136719 176.496094 64 176.496094 C 96.863281 176.496094 123.503906 203.136719 123.503906 236 Z M 123.503906 236" transform="matrix(1,0,0,1,8,-156)"/></g><mask id="mask6-1"><g id="g2123" filter="url(#alpha)" style="filter:url(#alpha-5)"><rect style="fill:#000;fill-opacity:.1;stroke:none" id="rect2121" width="128" height="128" x="0" y="0"/></g></mask><clipPath id="clip8-8"><rect id="rect2126" width="192" height="152" x="0" y="0"/></clipPath><g id="g2131" clip-path="url(#clip8-8)"><path style="fill:none;stroke-width:.99;stroke-linecap:butt;stroke-linejoin:miter;stroke:#000;stroke-opacity:1;stroke-dasharray:.99,.99;stroke-miterlimit:4" id="path2129" d="M 29.195312 180.496094 L 98.804688 180.496094 C 103.609375 180.496094 107.503906 184.046875 107.503906 188.425781 L 107.503906 283.574219 C 107.503906 287.953125 103.609375 291.503906 98.804688 291.503906 L 29.195312 291.503906 C 24.390625 291.503906 20.496094 287.953125 20.496094 283.574219 L 20.496094 188.425781 C 20.496094 184.046875 24.390625 180.496094 29.195312 180.496094 Z M 29.195312 180.496094" transform="matrix(1,0,0,1,8,-156)"/></g><mask id="mask7-7"><g id="g2135" filter="url(#alpha)" style="filter:url(#alpha-5)"><rect style="fill:#000;fill-opacity:.1;stroke:none" id="rect2133" width="128" height="128" x="0" y="0"/></g></mask><clipPath id="clip9-9"><rect id="rect2138" width="192" height="152" x="0" y="0"/></clipPath><g id="g2143" clip-path="url(#clip9-9)"><path style="fill:none;stroke-width:.99;stroke-linecap:butt;stroke-linejoin:miter;stroke:#000;stroke-opacity:1;stroke-dasharray:.99,.99;stroke-miterlimit:4" id="path2141" d="M 20.417969 184.496094 L 107.582031 184.496094 C 111.957031 184.496094 115.503906 188.042969 115.503906 192.417969 L 115.503906 279.582031 C 115.503906 283.957031 111.957031 287.503906 107.582031 287.503906 L 20.417969 287.503906 C 16.042969 287.503906 12.496094 283.957031 12.496094 279.582031 L 12.496094 192.417969 C 12.496094 188.042969 16.042969 184.496094 20.417969 184.496094 Z M 20.417969 184.496094" transform="matrix(1,0,0,1,8,-156)"/></g><mask id="mask8-2"><g id="g2147" filter="url(#alpha)" style="filter:url(#alpha-5)"><rect style="fill:#000;fill-opacity:.1;stroke:none" id="rect2145" width="128" height="128" x="0" y="0"/></g></mask><clipPath id="clip10-0"><rect id="rect2150" width="192" height="152" x="0" y="0"/></clipPath><g id="g2155" clip-path="url(#clip10-0)"><path style="fill:none;stroke-width:.99;stroke-linecap:butt;stroke-linejoin:miter;stroke:#000;stroke-opacity:1;stroke-dasharray:.99,.99;stroke-miterlimit:4" id="path2153" d="M 16.425781 200.496094 L 111.574219 200.496094 C 115.953125 200.496094 119.503906 204.390625 119.503906 209.195312 L 119.503906 278.804688 C 119.503906 283.609375 115.953125 287.503906 111.574219 287.503906 L 16.425781 287.503906 C 12.046875 287.503906 8.496094 283.609375 8.496094 278.804688 L 8.496094 209.195312 C 8.496094 204.390625 12.046875 200.496094 16.425781 200.496094 Z M 16.425781 200.496094" transform="matrix(1,0,0,1,8,-156)"/></g><clipPath id="clip6-2"><rect id="rect2157" width="128" height="128" x="0" y="0"/></clipPath><g id="surface10750-3" clip-path="url(#clip6-2)"><rect style="fill:#f0f0f0;fill-opacity:1;stroke:none" id="rect2160" width="128" height="128" x="0" y="0"/><use id="use2162" mask="url(#mask5-2)" transform="matrix(1,0,0,1,-8,-16)" xlink:href="#surface10726-9"/><use id="use2164" mask="url(#mask6-1)" transform="matrix(1,0,0,1,-8,-16)" xlink:href="#surface10729-7"/><use id="use2166" mask="url(#mask7-7)" transform="matrix(1,0,0,1,-8,-16)" xlink:href="#surface10732-3"/><use id="use2168" mask="url(#mask8-2)" transform="matrix(1,0,0,1,-8,-16)" xlink:href="#surface10735-6"/><path style="fill:none;stroke-width:2;stroke-linecap:butt;stroke-linejoin:miter;stroke:#62a0ea;stroke-opacity:1;stroke-miterlimit:4" id="path2170" d="M 0 289 L 128 289" transform="matrix(1,0,0,1,0,-172)"/></g><clipPath id="clip5-7"><rect id="rect2173" width="128" height="128" x="0" y="0"/></clipPath><g id="surface10753-5" clip-path="url(#clip5-7)" filter="url(#alpha)" style="filter:url(#alpha-5)"><use id="use2176" xlink:href="#surface10750-3"/></g><mask id="mask4-9"><use id="use2179" xlink:href="#surface10753-5"/></mask><mask id="mask9-2"><g id="g2184" filter="url(#alpha)" style="filter:url(#alpha-5)"><rect style="fill:#000;fill-opacity:.8;stroke:none" id="rect2182" width="128" height="128" x="0" y="0"/></g></mask><clipPath id="clip12-2"><rect id="rect2192" width="128" height="128" x="0" y="0"/></clipPath><g id="surface10747-8" clip-path="url(#clip12-2)"><path style="stroke:none;fill-rule:nonzero;fill:url(#linear0)" id="path2195" d="M 128 80.640625 L 128 128 L 0 128 L 0 80.640625 Z M 128 80.640625"/><path style="stroke:none;fill-rule:nonzero;fill:#000;fill-opacity:1" id="path2197" d="M 13.308594 80.640625 L 60.664062 128 L 81.878906 128 L 34.519531 80.640625 Z M 55.730469 80.640625 L 103.09375 128 L 124.308594 128 L 76.945312 80.640625 Z M 98.160156 80.640625 L 128 110.480469 L 128 89.269531 L 119.371094 80.640625 Z M 0 88.546875 L 0 109.761719 L 18.238281 128 L 39.453125 128 Z M 0 88.546875"/></g><clipPath id="clip11-9"><rect id="rect2200" width="128" height="128" x="0" y="0"/></clipPath><g id="surface10752-7" clip-path="url(#clip11-9)"><use id="use2203" mask="url(#mask9-2)" xlink:href="#surface10747-8"/></g></defs><linearGradient id="a" x1="9" x2="119" y1="64" y2="64" gradientUnits="userSpaceOnUse"><stop id="stop2" offset="0" stop-color="#151515"/><stop id="stop4" offset="1" stop-color="#1e282e" style="stop-color:#454e54;stop-opacity:1"/></linearGradient><linearGradient id="b" x1="13" x2="115" y1="64" y2="64" gradientUnits="userSpaceOnUse"><stop id="stop7" offset="0" stop-color="#1e282e"/><stop id="stop9" offset="1" stop-color="#5a6368"/></linearGradient><path id="rect3468" d="M 15.000001,7.85417 H 113 c 3.95879,0 7.14583,3.187042 7.14583,7.145833 0,35.048611 0,70.097227 0,105.145827 H 7.8541685 c 0,-35.0486 0,-70.097216 0,-105.145827 0,-3.958791 3.1870415,-7.145833 7.1458325,-7.145833 z" style="fill:url(#linearGradient3593);fill-opacity:1;stroke:none;stroke-width:1.02084"/><path id="rect3468-3" d="M 19.490909,13 H 108.50909 C 112.10505,13 115,15.894945 115,19.490909 V 115 H 13 C 13,83.163636 13,51.327273 13,19.490909 13,15.894945 15.894945,13 19.490909,13 Z" style="fill:#fff;stroke-width:.927277;filter:url(#filter3642)"/><g id="g18223"><g id="g66" fill="#c9c9c9" style="fill:#ddd;fill-opacity:1"><path id="path40" d="m 73 108 h 38 v -2 h -38 z m 0 0" style="fill:#ddd;fill-opacity:1"/><path id="path42" d="m 73 102 h 38 v -2 h -38 z m 0 0" style="fill:#ddd;fill-opacity:1"/><path id="path44" d="m 73 99 h 28 v -2 h -28 z m 0 0" style="fill:#ddd;fill-opacity:1"/><path id="path46" d="m 73 57 h 18 v -2 h -18 z m 0 0" style="fill:#ddd;fill-opacity:1"/><path id="path48" d="m 76 42 h 35 v -2 h -35 z m 0 0" style="fill:#ddd;fill-opacity:1"/><path id="path50" d="m 76 39 h 35 v -2 h -35 z m 0 0" style="fill:#ddd;fill-opacity:1"/><path id="path52" d="m 76 30 h 30 v -2 h -30 z m 0 0" style="fill:#ddd;fill-opacity:1"/><path id="path54" d="m 73 90 h 33 v -2 h -33 z m 0 0" style="fill:#ddd;fill-opacity:1"/><path id="path56" d="m 73 54 h 38 v -2 h -38 z m 0 0" style="fill:#ddd;fill-opacity:1"/><path id="path58" d="m 73 45 h 38 v -2 h -38 z m 0 0" style="fill:#ddd;fill-opacity:1"/><path id="path60" d="m 73 48 h 38 v -2 h -38 z m 0 0" style="fill:#ddd;fill-opacity:1"/><path id="path62" d="m 111 96 h -38 v -2 h 38 z m 0 0" style="fill:#ddd;fill-opacity:1"/><path id="path64" d="m 111 93 h -38 v -2 h 38 z m 0 0" style="fill:#ddd;fill-opacity:1"/></g><path id="path68" fill="#a3a3a3" d="m 78 81 h 26 v -8 h -26 z m 0 0" style="fill:#b8b7b7;fill-opacity:1"/><path id="path70" fill="#a3a3a3" d="m 78 71 h 26 v -8 h -26 z m 0 0" style="fill:#b8b7b7;fill-opacity:1"/></g><g id="g18205"><path id="path22" fill="#c9c9c9" d="m 17 20 h 38 v 2 h -38 z m 0 0" style="fill:#ddd;fill-opacity:1"/><path id="path24" fill="#c9c9c9" d="m 17 26 h 38 v 2 h -38 z m 0 0" style="fill:#ddd;fill-opacity:1"/><path id="path26" fill="#c9c9c9" d="m 17 29 h 28 v 2 h -28 z m 0 0" style="fill:#ddd;fill-opacity:1"/><path id="path28" fill="#c9c9c9" d="m 17 71 h 18 v 2 h -18 z m 0 0" style="fill:#ddd;fill-opacity:1"/><path id="path30" fill="#c9c9c9" d="m 20 98 h 30 v 2 h -30 z m 0 0" style="fill:#ddd;fill-opacity:1"/><path id="path32" fill="#c9c9c9" d="m 17 38 h 33 v 2 h -33 z m 0 0" style="fill:#ddd;fill-opacity:1"/><path id="path34" fill="#c9c9c9" d="m 55 32 h -38 v 2 h 38 z m 0 0" style="fill:#ddd;fill-opacity:1"/><path id="path36" fill="#c9c9c9" d="m 55 35 h -38 v 2 h 38 z m 0 0" style="fill:#ddd;fill-opacity:1"/><path id="path38" fill="#a3a3a3" d="m 25 44 h 20 v 20 h -20 z m 0 0" style="fill:#b8b7b7;fill-opacity:1;stroke:none;stroke-opacity:1"/><path id="path72" fill="none" stroke="#c9c9c9" stroke-width="4.669" d="m 17.832031 85.726562 s 8.277344 -3.183593 12.582031 -2.726562 c 4.804688 0.511719 7.742188 4 12.585938 4 c 4.167969 0 10.832031 -3.179688 10.832031 -3.179688" style="fill:none;fill-opacity:1;stroke:#b8b7b7;stroke-opacity:1"/><path id="path74" fill="none" stroke="#c9c9c9" stroke-width="4.669" d="m 17.832031 92.726562 s 8.277344 -3.183593 12.582031 -2.726562 c 4.804688 0.511719 7.742188 4 12.585938 4 c 4.167969 0 10.832031 -3.179688 10.832031 -3.179688" style="fill:none;fill-opacity:1;stroke:#b8b7b7;stroke-opacity:1"/></g><use id="use2220" width="100%" height="100%" x="0" y="0" mask="url(#mask4-9)" transform="matrix(0.875,0,0,0.83107886,8.14583,13.767736)" xlink:href="#surface10752-7"/><g id="g1769" transform="matrix(0.95703599,-0.28596362,0.26385324,0.99192689,-19.802357,8.510725)"><path id="path18" fill="#242424" d="m 65.056588,16.236601 7.741278,0.67915 C 75.568652,48.615483 62.324713,101.78779 62.324713,101.78779 l -4.737145,-0.41559 c 2.483911,-29.246629 7.46902,-85.135599 7.46902,-85.135599 z m 0,0" style="fill:#2b2b2b;fill-opacity:1;stroke-width:.949584"/><path id="path20" fill="#515151" d="m 57.34599,104.2107 c 1.298426,-0.92124 3.225841,0.28301 4.84061,0.42467 l 0.576808,7.30411 -7.260913,-0.63701 z m 0,0" style="stroke-width:.949584"/></g></svg>