<svg xmlns="http://www.w3.org/2000/svg" xmlns:svg="http://www.w3.org/2000/svg" id="svg169" width="16" height="16" version="1.1" viewBox="0 0 16 16"><defs id="defs173"><mask id="mask10551" maskUnits="userSpaceOnUse"><path id="path10553" d="M 2.490426,0.39218837 1.4339272,1.6786494 V 4.9643402 L 5.1881101,0.39218837 Z m 5.395368,0 L 1.4339272,8.2500312 V 11.540689 L 10.587993,0.39218837 Z m 5.397625,0 L 1.4339272,14.823896 v 0.827011 H 3.4543684 L 15.303861,1.219199 V 0.39218837 Z M 15.303861,4.5024064 6.1497949,15.650907 H 8.8497364 L 15.303861,7.7905809 Z m 0,6.5763486 -3.754183,4.572152 h 2.697685 l 1.056498,-1.286461 z" style="fill:#2e3436;fill-opacity:1;stroke-width:3.12292"/></mask><mask id="mask-powermask-path-effect10555" maskUnits="userSpaceOnUse"><path id="path9" d="M 0.39798372,-2.133683 H 16.340142 V 18.181293 H 0.39798372 Z" style="fill:#fff;fill-opacity:1"/><path id="path11" d="M 2.490426,0.39218837 1.4339272,1.6786494 V 4.9643402 L 5.1881101,0.39218837 Z m 5.395368,0 L 1.4339272,8.2500312 V 11.540689 L 10.587993,0.39218837 Z m 5.397625,0 L 1.4339272,14.823896 v 0.827011 H 3.4543684 L 15.303861,1.219199 V 0.39218837 Z M 15.303861,4.5024064 6.1497949,15.650907 H 8.8497364 L 15.303861,7.7905809 Z m 0,6.5763486 -3.754183,4.572152 h 2.697685 l 1.056498,-1.286461 z" style="fill:#2e3436;fill-opacity:1;stroke-width:3.12292"/></mask><clipPath id="clipPath1099" clipPathUnits="userSpaceOnUse"><rect style="fill:#000;fill-opacity:.998145;stroke-width:2.576" id="rect1101" width="14.4" height="14.4" x=".8" y=".8"/></clipPath><clipPath id="clipPath1103" clipPathUnits="userSpaceOnUse"><rect style="fill:#000;fill-opacity:.998145;stroke-width:2.576" id="rect1105" width="14.4" height="14.4" x=".8" y=".8"/></clipPath><clipPath id="clipPath1107" clipPathUnits="userSpaceOnUse"><rect style="fill:#000;fill-opacity:.998145;stroke-width:3.94057" id="rect1109" width="21.002" height="23.105" x="-2.715" y="-3.852"/></clipPath><clipPath id="clipPath1215" clipPathUnits="userSpaceOnUse"><rect style="fill:#000;fill-opacity:.998145;stroke-width:1.84" id="rect1217" width="10.286" height="10.286" x="2.857" y="2.857"/></clipPath><clipPath id="clipPath1219" clipPathUnits="userSpaceOnUse"><rect style="fill:#000;fill-opacity:.998145;stroke-width:2.576" id="rect1221" width="14.4" height="14.4" x=".8" y=".8"/></clipPath><clipPath id="clipPath1223" clipPathUnits="userSpaceOnUse"><rect style="fill:#000;fill-opacity:.998145;stroke-width:3.14258" id="rect1225" width="16.606" height="18.584" x="-.395" y="-1.529"/></clipPath></defs><filter id="a" width="1" height="1" x="0" y="0"><feColorMatrix id="feColorMatrix2" in="SourceGraphic" type="matrix" values="0 0 0 0 1 0 0 0 0 1 0 0 0 0 1 0 0 0 1 0"/></filter><mask id="b"><g id="g7" filter="url(#a)"><path id="path5" fill-opacity=".3" d="m 0 0 h 16 v 16 h -16 z"/></g></mask><clipPath id="c"><path id="path10" d="m 0 0 h 1024 v 800 h -1024 z"/></clipPath><mask id="d"><g id="g15" filter="url(#a)"><path id="path13" fill-opacity=".05" d="m 0 0 h 16 v 16 h -16 z"/></g></mask><clipPath id="e"><path id="path18" d="m 0 0 h 1024 v 800 h -1024 z"/></clipPath><mask id="f"><g id="g23" filter="url(#a)"><path id="path21" fill-opacity=".05" d="m 0 0 h 16 v 16 h -16 z"/></g></mask><clipPath id="g"><path id="path26" d="m 0 0 h 1024 v 800 h -1024 z"/></clipPath><mask id="h"><g id="g31" filter="url(#a)"><path id="path29" fill-opacity=".05" d="m 0 0 h 16 v 16 h -16 z"/></g></mask><clipPath id="i"><path id="path34" d="m 0 0 h 1024 v 800 h -1024 z"/></clipPath><mask id="j"><g id="g39" filter="url(#a)"><path id="path37" fill-opacity=".05" d="m 0 0 h 16 v 16 h -16 z"/></g></mask><clipPath id="k"><path id="path42" d="m 0 0 h 1024 v 800 h -1024 z"/></clipPath><mask id="l"><g id="g47" filter="url(#a)"><path id="path45" fill-opacity=".05" d="m 0 0 h 16 v 16 h -16 z"/></g></mask><clipPath id="m"><path id="path50" d="m 0 0 h 1024 v 800 h -1024 z"/></clipPath><mask id="n"><g id="g55" filter="url(#a)"><path id="path53" fill-opacity=".05" d="m 0 0 h 16 v 16 h -16 z"/></g></mask><clipPath id="o"><path id="path58" d="m 0 0 h 1024 v 800 h -1024 z"/></clipPath><mask id="p"><g id="g63" filter="url(#a)"><path id="path61" fill-opacity=".3" d="m 0 0 h 16 v 16 h -16 z"/></g></mask><clipPath id="q"><path id="path66" d="m 0 0 h 1024 v 800 h -1024 z"/></clipPath><mask id="r"><g id="g71" filter="url(#a)"><path id="path69" fill-opacity=".5" d="m 0 0 h 16 v 16 h -16 z"/></g></mask><clipPath id="s"><path id="path74" d="m 0 0 h 1024 v 800 h -1024 z"/></clipPath><mask id="t"><g id="g79" filter="url(#a)"><path id="path77" fill-opacity=".4" d="m 0 0 h 16 v 16 h -16 z"/></g></mask><clipPath id="u"><path id="path82" d="m 0 0 h 1024 v 800 h -1024 z"/></clipPath><mask id="v"><g id="g87" filter="url(#a)"><path id="path85" fill-opacity=".4" d="m 0 0 h 16 v 16 h -16 z"/></g></mask><clipPath id="w"><path id="path90" d="m 0 0 h 1024 v 800 h -1024 z"/></clipPath><mask id="x"><g id="g95" filter="url(#a)"><path id="path93" fill-opacity=".5" d="m 0 0 h 16 v 16 h -16 z"/></g></mask><clipPath id="y"><path id="path98" d="m 0 0 h 1024 v 800 h -1024 z"/></clipPath><mask id="z"><g id="g103" filter="url(#a)"><path id="path101" fill-opacity=".5" d="m 0 0 h 16 v 16 h -16 z"/></g></mask><clipPath id="A"><path id="path106" d="m 0 0 h 1024 v 800 h -1024 z"/></clipPath><g id="g143" fill="#2e3436" fill-rule="evenodd" clip-path="url(#clipPath1223)" transform="matrix(0.96350862,0,0,0.86095106,0.38095121,1.3161623)"><path id="path1660" d="M 10.613281,5.40625 6.390625,11.066406 4.699219,12.5625 4,12 4.996094,9.945312 9.214844,4.285156 Z m 0,0"/><path id="path1657" d="m 4,12.574219 c 0,0 -1.476562,0.667969 -1.464844,2.078125 0.015625,1.761718 2.660156,1.84375 2.742188,0.285156 C 5.324219,14.046875 4,12.574219 4,12.574219 Z m 0,0"/><path id="path1654" d="M 6.644531,4.429688 11.296875,7.957031 12,7.03125 10.605469,5.972656 C 13.410156,5.179688 15.324219,1.800781 13.464844,0.386719 11.605469,-1.023438 8.761719,1.652344 8.746094,4.5625 L 7.351562,3.503906 Z m 0,0"/></g><g id="g111" clip-path="url(#c)" mask="url(#b)" transform="matrix(1 0 0 1 -156 -620)"><path id="path109" fill="#2e3436" d="m 562.460938 212.058594 h 10.449218 c -1.183594 0.492187 -1.296875 2.460937 0 3 h -10.449218 z m 0 0"/></g><g id="g115" clip-path="url(#e)" mask="url(#d)" transform="matrix(1 0 0 1 -156 -620)"><path id="path113" fill="#2e3436" fill-rule="evenodd" d="m 16 632 h 1 v 1 h -1 z m 0 0"/></g><g id="g119" clip-path="url(#g)" mask="url(#f)" transform="matrix(1 0 0 1 -156 -620)"><path id="path117" fill="#2e3436" fill-rule="evenodd" d="m 17 631 h 1 v 1 h -1 z m 0 0"/></g><g id="g123" clip-path="url(#i)" mask="url(#h)" transform="matrix(1 0 0 1 -156 -620)"><path id="path121" fill="#2e3436" fill-rule="evenodd" d="m 18 634 h 1 v 1 h -1 z m 0 0"/></g><g id="g127" clip-path="url(#k)" mask="url(#j)" transform="matrix(1 0 0 1 -156 -620)"><path id="path125" fill="#2e3436" fill-rule="evenodd" d="m 16 634 h 1 v 1 h -1 z m 0 0"/></g><g id="g131" clip-path="url(#m)" mask="url(#l)" transform="matrix(1 0 0 1 -156 -620)"><path id="path129" fill="#2e3436" fill-rule="evenodd" d="m 17 635 h 1 v 1 h -1 z m 0 0"/></g><g id="g135" clip-path="url(#o)" mask="url(#n)" transform="matrix(1 0 0 1 -156 -620)"><path id="path133" fill="#2e3436" fill-rule="evenodd" d="m 19 635 h 1 v 1 h -1 z m 0 0"/></g><g id="g147" clip-path="url(#q)" mask="url(#p)" transform="matrix(1 0 0 1 -156 -620)"><path id="path145" fill="#2e3436" d="m 136 660 v 7 h 7 v -7 z m 0 0"/></g><g id="g151" clip-path="url(#s)" mask="url(#r)" transform="matrix(1 0 0 1 -156 -620)"><path id="path149" fill="#2e3436" d="m 199 642 h 3 v 12 h -3 z m 0 0"/></g><g id="g155" clip-path="url(#u)" mask="url(#t)" transform="matrix(1 0 0 1 -156 -620)"><path id="path153" fill="#2e3436" d="m 209.5 144.160156 c 0.277344 0 0.5 0.222656 0.5 0.5 v 1 c 0 0.277344 -0.222656 0.5 -0.5 0.5 s -0.5 -0.222656 -0.5 -0.5 v -1 c 0 -0.277344 0.222656 -0.5 0.5 -0.5 z m 0 0"/></g><g id="g159" clip-path="url(#w)" mask="url(#v)" transform="matrix(1 0 0 1 -156 -620)"><path id="path157" fill="#2e3436" d="m 206.5 144.160156 c 0.277344 0 0.5 0.222656 0.5 0.5 v 1 c 0 0.277344 -0.222656 0.5 -0.5 0.5 s -0.5 -0.222656 -0.5 -0.5 v -1 c 0 -0.277344 0.222656 -0.5 0.5 -0.5 z m 0 0"/></g><g id="g163" clip-path="url(#y)" mask="url(#x)" transform="matrix(1 0 0 1 -156 -620)"><path id="path161" fill="#2e3436" d="m 229.5 143.160156 c -0.546875 0 -1 0.457032 -1 1 c 0 0.546875 0.453125 1 1 1 s 1 -0.453125 1 -1 c 0 -0.542968 -0.453125 -1 -1 -1 z m 0 0"/></g><g id="g167" clip-path="url(#A)" mask="url(#z)" transform="matrix(1 0 0 1 -156 -620)"><path id="path165" fill="#2e3436" d="m 226.453125 143.160156 c -0.519531 0 -0.953125 0.433594 -0.953125 0.953125 v 0.09375 c 0 0.519531 0.433594 0.953125 0.953125 0.953125 h 0.09375 c 0.519531 0 0.953125 -0.433594 0.953125 -0.953125 v -0.09375 c 0 -0.519531 -0.433594 -0.953125 -0.953125 -0.953125 z m 0 0"/></g><path id="path1651" d="M 0,0 V 16 H 16 V 0 Z M 2,2 H 14 V 14 H 2 Z" clip-path="url(#clipPath1219)" transform="matrix(1.1111111,0,0,1.1111111,-0.8888889,-0.8888889)" style="fill:#2e3436;fill-opacity:1;stroke-width:2.576"/><path id="path1648" d="M 2.9140625,2 2,3.0117188 V 5.5957031 L 5.2480469,2 Z M 7.5820312,2 2,8.1796875 V 10.767578 L 6.2421875,6.0722656 5.9980469,5.90625 7.3242188,4.3515625 7.6171875,4.5507812 9.9199219,2 Z m 4.6699218,0 -0.308594,0.3417969 c 0.15092,0.057277 0.297154,0.13072 0.435547,0.2246093 0.383447,0.2608596 0.641402,0.6400967 0.753906,1.0429688 L 14,2.6503906 V 2 Z M 14,5.2324219 6.0800781,14 H 8.4160156 L 14,7.8183594 Z M 14,10.404297 10.751953,14 h 2.333985 L 14,12.988281 Z m -9.8085938,0.519531 -0.1660156,0.183594 c 0.035351,-0.02479 0.070636,-0.04978 0.1054688,-0.07227 z m -0.8125,0.900391 L 2,13.349609 V 14 h 1.7480469 l 0.1035156,-0.113281 c -0.038575,-0.02655 -0.07635,-0.05557 -0.1132813,-0.08594 C 3.428226,13.545865 3.2037987,13.126602 3.1992188,12.66406 c -0.00314,-0.337736 0.06774,-0.613033 0.1796874,-0.839843 z" clip-path="url(#clipPath1215)" mask="none" transform="matrix(1.5555556,0,0,1.5555556,-4.4444445,-4.4444445)" style="fill:#2e3436;fill-opacity:.998145;stroke-width:2.576"/></svg>