<svg xmlns="http://www.w3.org/2000/svg" xmlns:svg="http://www.w3.org/2000/svg" id="svg173" width="16" height="16" version="1.1" viewBox="0 0 16 16"><filter id="a" width="1" height="1" x="0" y="0"><feColorMatrix id="feColorMatrix2" in="SourceGraphic" type="matrix" values="0 0 0 0 1 0 0 0 0 1 0 0 0 0 1 0 0 0 1 0"/></filter><mask id="b"><g id="g7" filter="url(#a)"><path id="path5" fill-opacity=".3" d="m 0 0 h 16 v 16 h -16 z"/></g></mask><clipPath id="c"><path id="path10" d="m 0 0 h 1024 v 800 h -1024 z"/></clipPath><mask id="d"><g id="g15" filter="url(#a)"><path id="path13" fill-opacity=".05" d="m 0 0 h 16 v 16 h -16 z"/></g></mask><clipPath id="e"><path id="path18" d="m 0 0 h 1024 v 800 h -1024 z"/></clipPath><mask id="f"><g id="g23" filter="url(#a)"><path id="path21" fill-opacity=".05" d="m 0 0 h 16 v 16 h -16 z"/></g></mask><clipPath id="g"><path id="path26" d="m 0 0 h 1024 v 800 h -1024 z"/></clipPath><mask id="h"><g id="g31" filter="url(#a)"><path id="path29" fill-opacity=".05" d="m 0 0 h 16 v 16 h -16 z"/></g></mask><clipPath id="i"><path id="path34" d="m 0 0 h 1024 v 800 h -1024 z"/></clipPath><mask id="j"><g id="g39" filter="url(#a)"><path id="path37" fill-opacity=".05" d="m 0 0 h 16 v 16 h -16 z"/></g></mask><clipPath id="k"><path id="path42" d="m 0 0 h 1024 v 800 h -1024 z"/></clipPath><mask id="l"><g id="g47" filter="url(#a)"><path id="path45" fill-opacity=".05" d="m 0 0 h 16 v 16 h -16 z"/></g></mask><clipPath id="m"><path id="path50" d="m 0 0 h 1024 v 800 h -1024 z"/></clipPath><mask id="n"><g id="g55" filter="url(#a)"><path id="path53" fill-opacity=".05" d="m 0 0 h 16 v 16 h -16 z"/></g></mask><clipPath id="o"><path id="path58" d="m 0 0 h 1024 v 800 h -1024 z"/></clipPath><mask id="p"><g id="g63" filter="url(#a)"><path id="path61" fill-opacity=".3" d="m 0 0 h 16 v 16 h -16 z"/></g></mask><clipPath id="q"><path id="path66" d="m 0 0 h 1024 v 800 h -1024 z"/></clipPath><mask id="r"><g id="g71" filter="url(#a)"><path id="path69" fill-opacity=".5" d="m 0 0 h 16 v 16 h -16 z"/></g></mask><clipPath id="s"><path id="path74" d="m 0 0 h 1024 v 800 h -1024 z"/></clipPath><mask id="t"><g id="g79" filter="url(#a)"><path id="path77" fill-opacity=".4" d="m 0 0 h 16 v 16 h -16 z"/></g></mask><clipPath id="u"><path id="path82" d="m 0 0 h 1024 v 800 h -1024 z"/></clipPath><mask id="v"><g id="g87" filter="url(#a)"><path id="path85" fill-opacity=".4" d="m 0 0 h 16 v 16 h -16 z"/></g></mask><clipPath id="w"><path id="path90" d="m 0 0 h 1024 v 800 h -1024 z"/></clipPath><mask id="x"><g id="g95" filter="url(#a)"><path id="path93" fill-opacity=".5" d="m 0 0 h 16 v 16 h -16 z"/></g></mask><clipPath id="y"><path id="path98" d="m 0 0 h 1024 v 800 h -1024 z"/></clipPath><mask id="z"><g id="g103" filter="url(#a)"><path id="path101" fill-opacity=".5" d="m 0 0 h 16 v 16 h -16 z"/></g></mask><clipPath id="A"><path id="path106" d="m 0 0 h 1024 v 800 h -1024 z"/></clipPath><g id="g111" clip-path="url(#c)" mask="url(#b)" transform="matrix(1 0 0 1 -76 -700)"><path id="path109" fill="#2e3436" d="m 562.460938 212.058594 h 10.449218 c -1.183594 0.492187 -1.296875 2.460937 0 3 h -10.449218 z m 0 0"/></g><g id="g115" clip-path="url(#e)" mask="url(#d)" transform="matrix(1 0 0 1 -76 -700)"><path id="path113" fill="#2e3436" fill-rule="evenodd" d="m 16 632 h 1 v 1 h -1 z m 0 0"/></g><g id="g119" clip-path="url(#g)" mask="url(#f)" transform="matrix(1 0 0 1 -76 -700)"><path id="path117" fill="#2e3436" fill-rule="evenodd" d="m 17 631 h 1 v 1 h -1 z m 0 0"/></g><g id="g123" clip-path="url(#i)" mask="url(#h)" transform="matrix(1 0 0 1 -76 -700)"><path id="path121" fill="#2e3436" fill-rule="evenodd" d="m 18 634 h 1 v 1 h -1 z m 0 0"/></g><g id="g127" clip-path="url(#k)" mask="url(#j)" transform="matrix(1 0 0 1 -76 -700)"><path id="path125" fill="#2e3436" fill-rule="evenodd" d="m 16 634 h 1 v 1 h -1 z m 0 0"/></g><g id="g131" clip-path="url(#m)" mask="url(#l)" transform="matrix(1 0 0 1 -76 -700)"><path id="path129" fill="#2e3436" fill-rule="evenodd" d="m 17 635 h 1 v 1 h -1 z m 0 0"/></g><g id="g135" clip-path="url(#o)" mask="url(#n)" transform="matrix(1 0 0 1 -76 -700)"><path id="path133" fill="#2e3436" fill-rule="evenodd" d="m 19 635 h 1 v 1 h -1 z m 0 0"/></g><g id="g139" clip-path="url(#q)" mask="url(#p)" transform="matrix(1 0 0 1 -76 -700)"><path id="path137" fill="#2e3436" d="m 136 660 v 7 h 7 v -7 z m 0 0"/></g><g id="g143" clip-path="url(#s)" mask="url(#r)" transform="matrix(1 0 0 1 -76 -700)"><path id="path141" fill="#2e3436" d="m 199 642 h 3 v 12 h -3 z m 0 0"/></g><g id="g159" clip-path="url(#u)" mask="url(#t)" transform="matrix(1 0 0 1 -76 -700)"><path id="path157" fill="#2e3436" d="m 209.5 144.160156 c 0.277344 0 0.5 0.222656 0.5 0.5 v 1 c 0 0.277344 -0.222656 0.5 -0.5 0.5 s -0.5 -0.222656 -0.5 -0.5 v -1 c 0 -0.277344 0.222656 -0.5 0.5 -0.5 z m 0 0"/></g><g id="g163" clip-path="url(#w)" mask="url(#v)" transform="matrix(1 0 0 1 -76 -700)"><path id="path161" fill="#2e3436" d="m 206.5 144.160156 c 0.277344 0 0.5 0.222656 0.5 0.5 v 1 c 0 0.277344 -0.222656 0.5 -0.5 0.5 s -0.5 -0.222656 -0.5 -0.5 v -1 c 0 -0.277344 0.222656 -0.5 0.5 -0.5 z m 0 0"/></g><g id="g167" clip-path="url(#y)" mask="url(#x)" transform="matrix(1 0 0 1 -76 -700)"><path id="path165" fill="#2e3436" d="m 229.5 143.160156 c -0.546875 0 -1 0.457032 -1 1 c 0 0.546875 0.453125 1 1 1 s 1 -0.453125 1 -1 c 0 -0.542968 -0.453125 -1 -1 -1 z m 0 0"/></g><g id="g171" clip-path="url(#A)" mask="url(#z)" transform="matrix(1 0 0 1 -76 -700)"><path id="path169" fill="#2e3436" d="m 226.453125 143.160156 c -0.519531 0 -0.953125 0.433594 -0.953125 0.953125 v 0.09375 c 0 0.519531 0.433594 0.953125 0.953125 0.953125 h 0.09375 c 0.519531 0 0.953125 -0.433594 0.953125 -0.953125 v -0.09375 c 0 -0.519531 -0.433594 -0.953125 -0.953125 -0.953125 z m 0 0"/></g><g id="g5104"><g id="g998" transform="matrix(0.50675308,0,0,0.50675308,-498.28634,-310.14114)" style="fill:#2e3436;fill-opacity:1"><path id="path5011" d="m 993.10963,638.16815 a 3.9456334,0.62851322 0 0 1 -3.94563,0.62852 3.9456334,0.62851322 0 0 1 -3.94563,-0.62852 3.9456334,0.62851322 0 0 1 3.94563,-0.62851 3.9456334,0.62851322 0 0 1 3.94563,0.62851 z" transform="rotate(-4.9485901,989.16402,638.16815)"/><path id="path5008" d="m 992.00271,636.08643 a 3.1394308,1.3947134 0 0 1 -3.13943,1.39471 3.1394308,1.3947134 0 0 1 -3.13943,-1.39471 3.1394308,1.3947134 0 0 1 3.13943,-1.39472 3.1394308,1.3947134 0 0 1 3.13943,1.39472 z" transform="rotate(-43.850237,988.86325,636.08643)"/></g><g id="g1010" transform="matrix(0.50675308,0,0,0.50675308,-498.28634,-310.14114)" style="fill:#2e3436;fill-opacity:1"><path id="path5005" d="m 991.30375,633.49152 a 2.0531433,1.4303539 0 0 1 -2.05314,1.43035 2.0531433,1.4303539 0 0 1 -2.05314,-1.43035 2.0531433,1.4303539 0 0 1 2.05314,-1.43036 2.0531433,1.4303539 0 0 1 2.05314,1.43036 z" transform="rotate(-21.19118,989.25063,633.49154)"/><path id="path5002" d="m 995.31003,636.22455 a 4.5560637,1.2794265 0 0 1 -4.55606,1.27942 4.5560637,1.2794265 0 0 1 -4.55607,-1.27942 4.5560637,1.2794265 0 0 1 4.55607,-1.27943 4.5560637,1.2794265 0 0 1 4.55606,1.27943 z" transform="rotate(-31.063051,990.75399,636.22454)"/><path id="path4999" d="m 995.68156,636.39124 a 4.8335361,0.88626099 0 0 1 -4.83354,0.88626 4.8335361,0.88626099 0 0 1 -4.83353,-0.88626 4.8335361,0.88626099 0 0 1 4.83353,-0.88627 4.8335361,0.88626099 0 0 1 4.83354,0.88627 z" transform="rotate(-40.980048,990.84801,636.39121)"/><path id="path4996" d="m 993.67525,638.56805 a 2.0660615,0.78598255 0 0 1 -2.06606,0.78599 2.0660615,0.78598255 0 0 1 -2.06606,-0.78599 2.0660615,0.78598255 0 0 1 2.06606,-0.78598 2.0660615,0.78598255 0 0 1 2.06606,0.78598 z" transform="rotate(-25.834182,991.6092,638.56807)"/><path id="path4993" d="m 992.63137,635.67035 a 2.7636912,1.2631735 0 0 1 -2.76369,1.26317 2.7636912,1.2631735 0 0 1 -2.7637,-1.26317 2.7636912,1.2631735 0 0 1 2.7637,-1.26317 2.7636912,1.2631735 0 0 1 2.76369,1.26317 z" transform="rotate(-53.941546,989.86769,635.67032)"/></g><g id="g1028" transform="matrix(0.50675308,0,0,0.50675308,-498.28634,-310.14114)" style="fill:#2e3436;fill-opacity:1"><path id="path4990" d="m 996.54761,634.79041 a 4.6724892,1.216241 0 0 1 -4.67249,1.21624 4.6724892,1.216241 0 0 1 -4.67249,-1.21624 4.6724892,1.216241 0 0 1 4.67249,-1.21625 4.6724892,1.216241 0 0 1 4.67249,1.21625 z" transform="rotate(-37.376435,991.87509,634.79043)"/><path id="path4987" d="m 993.4308,628.40955 a 4.1794596,1.2106005 0 0 1 -4.17946,1.2106 4.1794596,1.2106005 0 0 1 -4.17946,-1.2106 4.1794596,1.2106005 0 0 1 4.17946,-1.2106 4.1794596,1.2106005 0 0 1 4.17946,1.2106 z" transform="rotate(-6.7284293,989.25137,628.40954)"/><path id="path4984" d="m 994.10447,631.75787 a 2.8951192,0.87757272 0 0 1 -2.89512,0.87758 2.8951192,0.87757272 0 0 1 -2.89512,-0.87758 2.8951192,0.87757272 0 0 1 2.89512,-0.87757 2.8951192,0.87757272 0 0 1 2.89512,0.87757 z" transform="rotate(-3.3308089,991.20935,631.75788)"/><path id="path4981" d="m 993.74137,631.12341 a 2.567543,0.91622388 0 0 1 -2.56754,0.91623 2.567543,0.91622388 0 0 1 -2.56754,-0.91623 2.567543,0.91622388 0 0 1 2.56754,-0.91622 2.567543,0.91622388 0 0 1 2.56754,0.91622 z" transform="rotate(-37.218252,991.1738,631.1234)"/><path id="path4978" d="m 992.46896,626.58759 a 4.1263666,1.3944032 0 0 1 -4.12637,1.3944 4.1263666,1.3944032 0 0 1 -4.12637,-1.3944 4.1263666,1.3944032 0 0 1 4.12637,-1.39441 4.1263666,1.3944032 0 0 1 4.12637,1.39441 z" transform="rotate(-28.675848,988.34258,626.58761)"/><path id="path4975" d="m 999.36505,640.09253 a 3.5038412,1.175319 0 0 1 -3.50384,1.17532 3.5038412,1.175319 0 0 1 -3.50385,-1.17532 3.5038412,1.175319 0 0 1 3.50385,-1.17532 3.5038412,1.175319 0 0 1 3.50384,1.17532 z" transform="rotate(-6.7207965,995.86118,640.0925)"/><path id="path4972" d="m 996.39353,633.47437 a 4.4118972,0.40613079 0 0 1 -4.4119,0.40613 4.4118972,0.40613079 0 0 1 -4.4119,-0.40613 4.4118972,0.40613079 0 0 1 4.4119,-0.40614 4.4118972,0.40613079 0 0 1 4.4119,0.40614 z" transform="rotate(-13.189224,991.98166,633.47437)"/><path id="path4969" d="m 993.40518,628.68433 a 3.8164334,0.87883639 0 0 1 -3.81643,0.87883 3.8164334,0.87883639 0 0 1 -3.81644,-0.87883 3.8164334,0.87883639 0 0 1 3.81644,-0.87884 3.8164334,0.87883639 0 0 1 3.81643,0.87884 z" transform="rotate(-33.547564,989.58874,628.68431)"/></g><g id="g1050" transform="matrix(0.50675308,0,0,0.50675308,-498.28634,-310.14114)" style="fill:#2e3436;fill-opacity:1"><path id="path4966" d="m 1001.6007,634.91882 a 3.9730539,1.0844167 0 0 1 -3.97308,1.08442 3.9730539,1.0844167 0 0 1 -3.97305,-1.08442 3.9730539,1.0844167 0 0 1 3.97305,-1.08441 3.9730539,1.0844167 0 0 1 3.97308,1.08441 z" transform="rotate(-6.8509504,997.62763,634.91883)"/><path id="path4963" d="m 996.50468,631.84314 a 3.9546282,1.2182345 0 0 1 -3.95463,1.21823 3.9546282,1.2182345 0 0 1 -3.95463,-1.21823 3.9546282,1.2182345 0 0 1 3.95463,-1.21823 3.9546282,1.2182345 0 0 1 3.95463,1.21823 z" transform="rotate(-12.888046,992.55004,631.84317)"/><path id="path4960" d="m 996.33183,630.81476 a 2.8667376,1.3064078 0 0 1 -2.86674,1.30641 2.8667376,1.3064078 0 0 1 -2.86674,-1.30641 2.8667376,1.3064078 0 0 1 2.86674,-1.30641 2.8667376,1.3064078 0 0 1 2.86674,1.30641 z" transform="rotate(-28.614666,993.46509,630.81475)"/><path id="path4957" d="m 997.57631,634.01172 a 2.9929981,1.064602 0 0 1 -2.993,1.0646 2.9929981,1.064602 0 0 1 -2.993,-1.0646 2.9929981,1.064602 0 0 1 2.993,-1.0646 2.9929981,1.064602 0 0 1 2.993,1.0646 z" transform="rotate(-32.625801,994.58328,634.0117)"/><path id="path4954" d="m 994.32892,625.09467 a 4.5550504,1.4762224 0 0 1 -4.55506,1.47622 4.5550504,1.4762224 0 0 1 -4.55505,-1.47622 4.5550504,1.4762224 0 0 1 4.55505,-1.47623 4.5550504,1.4762224 0 0 1 4.55506,1.47623 z" transform="rotate(-13.538167,989.77388,625.09465)"/><path id="path4951" d="m 998.65566,630.59393 a 3.839375,1.2085124 0 0 1 -3.83938,1.20852 3.839375,1.2085124 0 0 1 -3.83937,-1.20852 3.839375,1.2085124 0 0 1 3.83937,-1.20851 3.839375,1.2085124 0 0 1 3.83938,1.20851 z" transform="rotate(-21.160928,994.81629,630.59391)"/><path id="path4948" d="m 994.73801,629.95886 a 1.3266939,1.1551974 0 0 1 -1.32669,1.1552 1.3266939,1.1551974 0 0 1 -1.3267,-1.1552 1.3266939,1.1551974 0 0 1 1.3267,-1.1552 1.3266939,1.1551974 0 0 1 1.32669,1.1552 z" transform="rotate(-10.041872,993.4113,629.95883)"/><path id="path4945" d="m 992.95381,625.14539 a 2.8708656,0.86652821 0 0 1 -2.87086,0.86652 2.8708656,0.86652821 0 0 1 -2.87087,-0.86652 2.8708656,0.86652821 0 0 1 2.87087,-0.86653 2.8708656,0.86652821 0 0 1 2.87086,0.86653 z" transform="rotate(-17.333268,990.08294,625.14538)"/><path id="path4942" d="m 999.46161,633.57507 a 4.477109,0.67975777 0 0 1 -4.47711,0.67976 4.477109,0.67975777 0 0 1 -4.47711,-0.67976 4.477109,0.67975777 0 0 1 4.47711,-0.67975 4.477109,0.67975777 0 0 1 4.47711,0.67975 z" transform="rotate(-39.261471,994.98452,633.57506)"/><path id="path4939" d="m 1002.0361,635.73517 a 4.7353401,0.38575426 0 0 1 -4.73532,0.38575 4.7353401,0.38575426 0 0 1 -4.73534,-0.38575 4.7353401,0.38575426 0 0 1 4.73534,-0.38576 4.7353401,0.38575426 0 0 1 4.73532,0.38576 z" transform="rotate(-16.948626,997.30078,635.73516)"/></g><g id="g1080" transform="matrix(0.50675308,0,0,0.50675308,-498.28634,-310.14114)" style="fill:#2e3436;fill-opacity:1"><path id="path4936" d="m 1002.2145,628.4823 a 3.542428,0.50537038 0 0 1 -3.54238,0.50537 3.542428,0.50537038 0 0 1 -3.54243,-0.50537 3.542428,0.50537038 0 0 1 3.54243,-0.50537 3.542428,0.50537038 0 0 1 3.54238,0.50537 z" transform="rotate(-14.491298,998.6721,628.48229)"/><path id="path4933" d="m 1002.3176,630.34485 a 3.9795663,0.89805466 0 0 1 -3.97953,0.89805 3.9795663,0.89805466 0 0 1 -3.97956,-0.89805 3.9795663,0.89805466 0 0 1 3.97956,-0.89806 3.9795663,0.89805466 0 0 1 3.97953,0.89806 z" transform="rotate(-14.71692,998.3381,630.34487)"/><path id="path4930" d="m 1003.9597,635.73572 a 4.2675991,0.76609868 0 0 1 -4.26762,0.7661 4.2675991,0.76609868 0 0 1 -4.2676,-0.7661 4.2675991,0.76609868 0 0 1 4.2676,-0.7661 4.2675991,0.76609868 0 0 1 4.26762,0.7661 z" transform="rotate(-28.03803,999.69205,635.73571)"/><path id="path4927" d="m 999.87595,624.94836 a 3.4777,0.66969812 0 0 1 -3.4777,0.6697 3.4777,0.66969812 0 0 1 -3.4777,-0.6697 3.4777,0.66969812 0 0 1 3.4777,-0.66969 3.4777,0.66969812 0 0 1 3.4777,0.66969 z" transform="rotate(-26.491983,996.39826,624.94839)"/><path id="path4924" d="m 1000.2031,630.11292 a 4.8223267,1.299632 0 0 1 -4.82236,1.29963 4.8223267,1.299632 0 0 1 -4.82233,-1.29963 4.8223267,1.299632 0 0 1 4.82233,-1.29964 4.8223267,1.299632 0 0 1 4.82236,1.29964 z" transform="rotate(-7.3648122,995.38074,630.11291)"/><path id="path4921" d="m 1000.9701,633.5473 a 3.9478073,1.0008575 0 0 1 -3.94782,1.00086 3.9478073,1.0008575 0 0 1 -3.94781,-1.00086 3.9478073,1.0008575 0 0 1 3.94781,-1.00086 3.9478073,1.0008575 0 0 1 3.94782,1.00086 z" transform="rotate(-16.128182,997.02227,633.54729)"/><path id="path4918" d="m 1000.2217,630.20618 a 3.7736447,0.7476421 0 0 1 -3.77364,0.74764 3.7736447,0.7476421 0 0 1 -3.77365,-0.74764 3.7736447,0.7476421 0 0 1 3.77365,-0.74765 3.7736447,0.7476421 0 0 1 3.77364,0.74765 z" transform="rotate(-46.895707,996.44804,630.20619)"/><path id="path4915" d="m 998.2894,629.11432 a 2.8306587,0.93632096 0 0 1 -2.83066,0.93632 2.8306587,0.93632096 0 0 1 -2.83066,-0.93632 2.8306587,0.93632096 0 0 1 2.83066,-0.93632 2.8306587,0.93632096 0 0 1 2.83066,0.93632 z" transform="rotate(-27.987483,995.45874,629.11433)"/><path id="path4912" d="m 1003.3045,631.84491 a 2.2205422,1.2759647 0 0 1 -2.2206,1.27596 2.2205422,1.2759647 0 0 1 -2.22052,-1.27596 2.2205422,1.2759647 0 0 1 2.22052,-1.27597 2.2205422,1.2759647 0 0 1 2.2206,1.27597 z" transform="rotate(-8.3191953,1001.0838,631.84488)"/><path id="path4909" d="m 998.71088,626.34546 a 1.2601305,0.4391132 0 0 1 -1.26014,0.43911 1.2601305,0.4391132 0 0 1 -1.26013,-0.43911 1.2601305,0.4391132 0 0 1 1.26013,-0.43911 1.2601305,0.4391132 0 0 1 1.26014,0.43911 z" transform="rotate(-5.157181,997.45074,626.34544)"/><path id="path4906" d="m 996.92109,622.02112 a 3.778203,1.4409509 0 0 1 -3.77821,1.44095 3.778203,1.4409509 0 0 1 -3.7782,-1.44095 3.778203,1.4409509 0 0 1 3.7782,-1.44095 3.778203,1.4409509 0 0 1 3.77821,1.44095 z" transform="rotate(-3.3932673,993.14289,622.02112)"/><path id="path4903" d="m 1000.4601,628.39496 a 4.6634827,1.322291 0 0 1 -4.66347,1.32229 4.6634827,1.322291 0 0 1 -4.66348,-1.32229 4.6634827,1.322291 0 0 1 4.66348,-1.32229 4.6634827,1.322291 0 0 1 4.66347,1.32229 z" transform="rotate(-41.499029,995.79661,628.39498)"/><path id="path4900" d="m 1002.2023,630.75354 a 2.9611011,0.49818006 0 0 1 -2.96115,0.49818 2.9611011,0.49818006 0 0 1 -2.9611,-0.49818 2.9611011,0.49818006 0 0 1 2.9611,-0.49818 2.9611011,0.49818006 0 0 1 2.96115,0.49818 z" transform="rotate(-17.379227,999.24117,630.75357)"/><path id="path4897" d="m 1002.0491,634.15125 a 2.5986052,1.3323789 0 0 1 -2.5986,1.33237 2.5986052,1.3323789 0 0 1 -2.5986,-1.33237 2.5986052,1.3323789 0 0 1 2.5986,-1.33238 2.5986052,1.3323789 0 0 1 2.5986,1.33238 z" transform="rotate(-26.521444,999.45052,634.15126)"/></g><g id="g1104" transform="matrix(0.50675308,0,0,0.50675308,-498.28634,-310.14114)" style="fill:#2e3436;fill-opacity:1"><path id="path4894" d="m 1003.309,629.70685 a 1.6508765,0.96105021 0 0 1 -1.6509,0.96105 1.6508765,0.96105021 0 0 1 -1.6509,-0.96105 1.6508765,0.96105021 0 0 1 1.6509,-0.96105 1.6508765,0.96105021 0 0 1 1.6509,0.96105 z" transform="rotate(-19.469613,1001.6582,629.70687)"/><path id="path4891" d="m 1006.696,628.06189 a 2.9336452,0.71312529 0 0 1 -2.9337,0.71312 2.9336452,0.71312529 0 0 1 -2.9336,-0.71312 2.9336452,0.71312529 0 0 1 2.9336,-0.71313 2.9336452,0.71312529 0 0 1 2.9337,0.71313 z" transform="rotate(-14.116899,1003.7623,628.06191)"/><path id="path4888" d="m 1005.6178,626.02094 a 2.502589,1.091772 0 0 1 -2.5026,1.09177 2.502589,1.091772 0 0 1 -2.5026,-1.09177 2.502589,1.091772 0 0 1 2.5026,-1.09178 2.502589,1.091772 0 0 1 2.5026,1.09178 z" transform="rotate(-10.589967,1003.1152,626.02094)"/><path id="path4885" d="m 1002.2243,626.25208 a 2.1876805,0.38908783 0 0 1 -2.1877,0.38908 2.1876805,0.38908783 0 0 1 -2.18766,-0.38908 2.1876805,0.38908783 0 0 1 2.18766,-0.38909 2.1876805,0.38908783 0 0 1 2.1877,0.38909 z" transform="rotate(-20.262199,1000.0366,626.25206)"/><path id="path4882" d="m 1005.7107,627.57153 a 4.2454643,0.38768792 0 0 1 -4.2455,0.38769 4.2454643,0.38768792 0 0 1 -4.24545,-0.38769 4.2454643,0.38768792 0 0 1 4.24545,-0.38768 4.2454643,0.38768792 0 0 1 4.2455,0.38768 z" transform="rotate(-3.7973846,1001.4652,627.57156)"/><path id="path4879" d="m 1006.6987,627.35724 a 3.2694678,0.59458393 0 0 1 -3.2695,0.59458 3.2694678,0.59458393 0 0 1 -3.2695,-0.59458 3.2694678,0.59458393 0 0 1 3.2695,-0.59459 3.2694678,0.59458393 0 0 1 3.2695,0.59459 z" transform="rotate(-14.505785,1003.4292,627.35726)"/><path id="path4876" d="m 1009.3246,635.9317 a 2.4422975,0.50109196 0 0 1 -2.4423,0.50109 2.4422975,0.50109196 0 0 1 -2.4423,-0.50109 2.4422975,0.50109196 0 0 1 2.4423,-0.50109 2.4422975,0.50109196 0 0 1 2.4423,0.50109 z" transform="rotate(-16.638388,1006.8823,635.93172)"/><path id="path4873" d="m 1005.3569,630.29779 a 3.0586483,1.3681585 0 0 1 -3.0586,1.36816 3.0586483,1.3681585 0 0 1 -3.05867,-1.36816 3.0586483,1.3681585 0 0 1 3.05867,-1.36816 3.0586483,1.3681585 0 0 1 3.0586,1.36816 z" transform="rotate(-28.185154,1002.2983,630.29782)"/><path id="path4870" d="m 1006.4479,626.979 a 4.1681519,1.1685216 0 0 1 -4.1682,1.16853 4.1681519,1.1685216 0 0 1 -4.16813,-1.16853 4.1681519,1.1685216 0 0 1 4.16813,-1.16852 4.1681519,1.1685216 0 0 1 4.1682,1.16852 z" transform="rotate(-35.65597,1002.2797,626.97897)"/><path id="path4867" d="m 1001.6498,628.50726 a 1.4344364,0.71992368 0 0 1 -1.4344,0.71993 1.4344364,0.71992368 0 0 1 -1.43444,-0.71993 1.4344364,0.71992368 0 0 1 1.43444,-0.71992 1.4344364,0.71992368 0 0 1 1.4344,0.71992 z" transform="rotate(-47.416112,1000.2154,628.50727)"/><path id="path4864" d="m 1004.746,626.67535 a 4.7071061,0.63838583 0 0 1 -4.7071,0.63839 4.7071061,0.63838583 0 0 1 -4.70713,-0.63839 4.7071061,0.63838583 0 0 1 4.70713,-0.63838 4.7071061,0.63838583 0 0 1 4.7071,0.63838 z" transform="rotate(-16.582572,1000.0389,626.67538)"/></g><g id="g1138" transform="matrix(0.50675308,0,0,0.50675308,-498.28634,-310.14114)" style="fill:#2e3436;fill-opacity:1"><path id="path4861" d="m 1012.2758,626.62653 a 3.1394308,1.3947134 0 0 1 -3.1394,1.39471 3.1394308,1.3947134 0 0 1 -3.1394,-1.39471 3.1394308,1.3947134 0 0 1 3.1394,-1.39472 3.1394308,1.3947134 0 0 1 3.1394,1.39472 z" transform="rotate(-38.057393,1009.1364,626.62655)"/><path id="path4858" d="m 1010.4257,626.01898 a 2.3295426,1.4796538 0 0 1 -2.3296,1.47966 2.3295426,1.4796538 0 0 1 -2.3295,-1.47966 2.3295426,1.4796538 0 0 1 2.3295,-1.47965 2.3295426,1.4796538 0 0 1 2.3296,1.47965 z" transform="rotate(-22.350021,1008.0961,626.01901)"/><path id="path4855" d="m 1009.3744,625.54865 a 3.5664549,0.63246781 0 0 1 -3.5665,0.63246 3.5664549,0.63246781 0 0 1 -3.5664,-0.63246 3.5664549,0.63246781 0 0 1 3.5664,-0.63247 3.5664549,0.63246781 0 0 1 3.5665,0.63247 z" transform="rotate(-27.628259,1005.8079,625.54865)"/><path id="path4852" d="m 1006.5909,625.68103 a 1.2710203,0.84602791 0 0 1 -1.271,0.84603 1.2710203,0.84602791 0 0 1 -1.271,-0.84603 1.2710203,0.84602791 0 0 1 1.271,-0.84603 1.2710203,0.84602791 0 0 1 1.271,0.84603 z" transform="rotate(-31.484282,1005.32,625.68105)"/><path id="path4849" d="m 1009.2368,625.91766 a 1.2664472,1.3949041 0 0 1 -1.2664,1.39491 1.2664472,1.3949041 0 0 1 -1.2664,-1.39491 1.2664472,1.3949041 0 0 1 1.2664,-1.3949 1.2664472,1.3949041 0 0 1 1.2664,1.3949 z" transform="rotate(-6.2869297,1007.9704,625.91764)"/><path id="path4846" d="m 1009.0363,626.30322 a 1.9423074,1.2331935 0 0 1 -1.9423,1.2332 1.9423074,1.2331935 0 0 1 -1.9423,-1.2332 1.9423074,1.2331935 0 0 1 1.9423,-1.23319 1.9423074,1.2331935 0 0 1 1.9423,1.23319 z" transform="rotate(-18.237907,1007.094,626.30321)"/><path id="path4843" d="m 1008.5929,622.00677 a 1.6369004,0.724235 0 0 1 -1.6369,0.72424 1.6369004,0.724235 0 0 1 -1.6369,-0.72424 1.6369004,0.724235 0 0 1 1.6369,-0.72423 1.6369004,0.724235 0 0 1 1.6369,0.72423 z" transform="rotate(-28.366524,1006.956,622.00678)"/><path id="path4840" d="m 1011.377,624.45819 a 4.4693179,1.1370426 0 0 1 -4.4693,1.13704 4.4693179,1.1370426 0 0 1 -4.4693,-1.13704 4.4693179,1.1370426 0 0 1 4.4693,-1.13704 4.4693179,1.1370426 0 0 1 4.4693,1.13704 z" transform="rotate(-20.81937,1006.9077,624.45817)"/><path id="path4837" d="m 1011.081,633.15253 a 3.8171706,0.39611435 0 0 1 -3.8172,0.39611 3.8171706,0.39611435 0 0 1 -3.8172,-0.39611 3.8171706,0.39611435 0 0 1 3.8172,-0.39612 3.8171706,0.39611435 0 0 1 3.8172,0.39612 z" transform="rotate(-7.2336154,1007.2638,633.15255)"/><path id="path4834" d="m 1014.0263,636.88928 a 2.3517506,0.57980776 0 0 1 -2.3518,0.57981 2.3517506,0.57980776 0 0 1 -2.3518,-0.57981 2.3517506,0.57980776 0 0 1 2.3518,-0.57981 2.3517506,0.57980776 0 0 1 2.3518,0.57981 z" transform="rotate(-40.707679,1011.6745,636.88926)"/><path id="path4831" d="m 1006.8288,629.44415 a 2.0853939,0.78199798 0 0 1 -2.0854,0.782 2.0853939,0.78199798 0 0 1 -2.0854,-0.782 2.0853939,0.78199798 0 0 1 2.0854,-0.782 2.0853939,0.78199798 0 0 1 2.0854,0.782 z" transform="rotate(-0.63417039,1004.7434,629.44413)"/><path id="path4828" d="m 1009.6379,625.17358 a 3.603507,1.2636018 0 0 1 -3.6035,1.26361 3.603507,1.2636018 0 0 1 -3.6035,-1.26361 3.603507,1.2636018 0 0 1 3.6035,-1.2636 3.603507,1.2636018 0 0 1 3.6035,1.2636 z" transform="rotate(-5.3805663,1006.0344,625.17359)"/><path id="path4825" d="m 1010.578,627.48218 a 2.6702721,1.4005661 0 0 1 -2.6702,1.40056 2.6702721,1.4005661 0 0 1 -2.6703,-1.40056 2.6702721,1.4005661 0 0 1 2.6703,-1.40057 2.6702721,1.4005661 0 0 1 2.6702,1.40057 z" transform="rotate(-38.345005,1007.9078,627.48221)"/><path id="path4822" d="m 1010.1166,625.27332 a 4.1473103,1.2604948 0 0 1 -4.1473,1.26049 4.1473103,1.2604948 0 0 1 -4.1473,-1.26049 4.1473103,1.2604948 0 0 1 4.1473,-1.2605 4.1473103,1.2604948 0 0 1 4.1473,1.2605 z" transform="rotate(-4.9770531,1005.9693,625.27334)"/><path id="path4819" d="m 1007.2231,619.48297 a 1.3846891,0.43780127 0 0 1 -1.3847,0.4378 1.3846891,0.43780127 0 0 1 -1.3847,-0.4378 1.3846891,0.43780127 0 0 1 1.3847,-0.4378 1.3846891,0.43780127 0 0 1 1.3847,0.4378 z" transform="rotate(-12.642746,1005.8384,619.48299)"/><path id="path4816" d="m 1005.6442,615.1308 a 1.3352196,0.63583529 0 0 1 -1.3352,0.63583 1.3352196,0.63583529 0 0 1 -1.3352,-0.63583 1.3352196,0.63583529 0 0 1 1.3352,-0.63584 1.3352196,0.63583529 0 0 1 1.3352,0.63584 z" transform="rotate(-29.080195,1004.309,615.1308)"/></g></g></svg>