<svg xmlns="http://www.w3.org/2000/svg" xmlns:svg="http://www.w3.org/2000/svg" id="svg5" width="100" height="100" version="1.1" viewBox="0 0 26.458 26.458"><g id="g924" transform="matrix(0.67042205,0,0,0.67042205,4.3598232,3.9026805)"><g id="g952" fill="#2e3436" transform="matrix(0.91056928,0,0,0.91056928,5.9446122,7.2710855)" style="fill:#bebebe;fill-opacity:1"><path id="path950" d="m 7.78125,0.996094 -3.03125,3 H 7 v 2 h 2 v -2 h 2.25 l -3.03125,-3 z m 0,0" style="fill:#bebebe;fill-opacity:1"/><path id="path947" d="m 1,6.996094 h 14 v 2 H 1 Z m 0,0" style="fill:#bebebe;fill-opacity:1"/><path id="path943" d="m 7.78125,14.996094 -3.03125,-3 H 7 v -2 h 2 v 2 h 2.25 l -3.03125,3 z m 0,0" style="fill:#bebebe;fill-opacity:1"/></g><path style="color:#000;fill:#bebebe;stroke-width:.877232;stroke-dasharray:5.08795,2.54397;stroke-dashoffset:2.54397;-inkscape-stroke:none" id="path940" d="m 0,4.0824961 v 2.231957 h 2.9003906 v -2.231957 z m 5.8007812,0 v 2.231957 h 5.7988278 v -2.231957 z m 8.6992188,0 v 2.231957 h 5.800781 v -2.231957 z m 8.699219,0 v 2.231957 h 3.259765 v -2.231957 z"/><path style="color:#000;fill:#bebebe;stroke-dashoffset:1;-inkscape-stroke:none" id="path937" d="m 0,22.740234 v 1 h 26.458984 v -1 z"/></g></svg>