<svg xmlns="http://www.w3.org/2000/svg" xmlns:svg="http://www.w3.org/2000/svg" id="svg2971" width="16" height="16" version="1.1" viewBox="0 0 16 16"><filter id="a" width="1" height="1" x="0" y="0"><feColorMatrix id="feColorMatrix2810" in="SourceGraphic" type="matrix" values="0 0 0 0 1 0 0 0 0 1 0 0 0 0 1 0 0 0 1 0"/></filter><mask id="b"><g id="g2815" filter="url(#a)"><path id="path2813" fill-opacity=".3" d="m 0 0 h 16 v 16 h -16 z"/></g></mask><clipPath id="c"><path id="path2818" d="m 0 0 h 1024 v 800 h -1024 z"/></clipPath><mask id="d"><g id="g2823" filter="url(#a)"><path id="path2821" fill-opacity=".05" d="m 0 0 h 16 v 16 h -16 z"/></g></mask><clipPath id="e"><path id="path2826" d="m 0 0 h 1024 v 800 h -1024 z"/></clipPath><mask id="f"><g id="g2831" filter="url(#a)"><path id="path2829" fill-opacity=".05" d="m 0 0 h 16 v 16 h -16 z"/></g></mask><clipPath id="g"><path id="path2834" d="m 0 0 h 1024 v 800 h -1024 z"/></clipPath><mask id="h"><g id="g2839" filter="url(#a)"><path id="path2837" fill-opacity=".05" d="m 0 0 h 16 v 16 h -16 z"/></g></mask><clipPath id="i"><path id="path2842" d="m 0 0 h 1024 v 800 h -1024 z"/></clipPath><mask id="j"><g id="g2847" filter="url(#a)"><path id="path2845" fill-opacity=".05" d="m 0 0 h 16 v 16 h -16 z"/></g></mask><clipPath id="k"><path id="path2850" d="m 0 0 h 1024 v 800 h -1024 z"/></clipPath><mask id="l"><g id="g2855" filter="url(#a)"><path id="path2853" fill-opacity=".05" d="m 0 0 h 16 v 16 h -16 z"/></g></mask><clipPath id="m"><path id="path2858" d="m 0 0 h 1024 v 800 h -1024 z"/></clipPath><mask id="n"><g id="g2863" filter="url(#a)"><path id="path2861" fill-opacity=".05" d="m 0 0 h 16 v 16 h -16 z"/></g></mask><clipPath id="o"><path id="path2866" d="m 0 0 h 1024 v 800 h -1024 z"/></clipPath><mask id="p"><g id="g2871" filter="url(#a)"><path id="path2869" fill-opacity=".3" d="m 0 0 h 16 v 16 h -16 z"/></g></mask><clipPath id="q"><path id="path2874" d="m 0 0 h 1024 v 800 h -1024 z"/></clipPath><mask id="r"><g id="g2879" filter="url(#a)"><path id="path2877" fill-opacity=".5" d="m 0 0 h 16 v 16 h -16 z"/></g></mask><clipPath id="s"><path id="path2882" d="m 0 0 h 1024 v 800 h -1024 z"/></clipPath><mask id="t"><g id="g2887" filter="url(#a)"><path id="path2885" fill-opacity=".4" d="m 0 0 h 16 v 16 h -16 z"/></g></mask><clipPath id="u"><path id="path2890" d="m 0 0 h 1024 v 800 h -1024 z"/></clipPath><mask id="v"><g id="g2895" filter="url(#a)"><path id="path2893" fill-opacity=".4" d="m 0 0 h 16 v 16 h -16 z"/></g></mask><clipPath id="w"><path id="path2898" d="m 0 0 h 1024 v 800 h -1024 z"/></clipPath><mask id="x"><g id="g2903" filter="url(#a)"><path id="path2901" fill-opacity=".5" d="m 0 0 h 16 v 16 h -16 z"/></g></mask><clipPath id="y"><path id="path2906" d="m 0 0 h 1024 v 800 h -1024 z"/></clipPath><mask id="z"><g id="g2911" filter="url(#a)"><path id="path2909" fill-opacity=".5" d="m 0 0 h 16 v 16 h -16 z"/></g></mask><clipPath id="A"><path id="path2914" d="m 0 0 h 1024 v 800 h -1024 z"/></clipPath><path style="color:#000;fill:#2e3436;stroke-width:.983946;-inkscape-stroke:none" id="path2917" d="m 10.2946,4.9001837 c -0.252148,0 -0.500879,0.099228 -0.6879926,0.2863435 L 5.1865393,9.6065953 C 4.8075945,9.9855388 4.8075171,10.60929 5.188458,10.986425 l 4.4181463,4.418147 c 0.3771341,0.380945 1.0008847,0.380867 1.3798297,0.002 l 4.420069,-4.420069 c 0.377812,-0.377814 0.377725,-1.0002287 0.002,-1.3798295 h -0.002 L 10.986437,5.1846054 h -0.002 C 10.796491,5.0003429 10.547824,4.9001837 10.2946,4.9001837 Z m 0,1.4643877 L 14.226539,10.29651 10.2946,14.228449 6.3626618,10.29651 Z"/><g id="g2921" clip-path="url(#c)" mask="url(#b)" transform="matrix(1 0 0 1 -540 -520)"><path id="path2919" fill="#2e3436" d="m 562.460938 212.058594 h 10.449218 c -1.183594 0.492187 -1.296875 2.460937 0 3 h -10.449218 z m 0 0"/></g><g id="g2925" clip-path="url(#e)" mask="url(#d)" transform="matrix(1 0 0 1 -540 -520)"><path id="path2923" fill="#2e3436" fill-rule="evenodd" d="m 16 632 h 1 v 1 h -1 z m 0 0"/></g><g id="g2929" clip-path="url(#g)" mask="url(#f)" transform="matrix(1 0 0 1 -540 -520)"><path id="path2927" fill="#2e3436" fill-rule="evenodd" d="m 17 631 h 1 v 1 h -1 z m 0 0"/></g><g id="g2933" clip-path="url(#i)" mask="url(#h)" transform="matrix(1 0 0 1 -540 -520)"><path id="path2931" fill="#2e3436" fill-rule="evenodd" d="m 18 634 h 1 v 1 h -1 z m 0 0"/></g><g id="g2937" clip-path="url(#k)" mask="url(#j)" transform="matrix(1 0 0 1 -540 -520)"><path id="path2935" fill="#2e3436" fill-rule="evenodd" d="m 16 634 h 1 v 1 h -1 z m 0 0"/></g><g id="g2941" clip-path="url(#m)" mask="url(#l)" transform="matrix(1 0 0 1 -540 -520)"><path id="path2939" fill="#2e3436" fill-rule="evenodd" d="m 17 635 h 1 v 1 h -1 z m 0 0"/></g><g id="g2945" clip-path="url(#o)" mask="url(#n)" transform="matrix(1 0 0 1 -540 -520)"><path id="path2943" fill="#2e3436" fill-rule="evenodd" d="m 19 635 h 1 v 1 h -1 z m 0 0"/></g><g id="g2949" clip-path="url(#q)" mask="url(#p)" transform="matrix(1 0 0 1 -540 -520)"><path id="path2947" fill="#2e3436" d="m 136 660 v 7 h 7 v -7 z m 0 0"/></g><g id="g2953" clip-path="url(#s)" mask="url(#r)" transform="matrix(1 0 0 1 -540 -520)"><path id="path2951" fill="#2e3436" d="m 199 642 h 3 v 12 h -3 z m 0 0"/></g><g id="g2957" clip-path="url(#u)" mask="url(#t)" transform="matrix(1 0 0 1 -540 -520)"><path id="path2955" fill="#2e3436" d="m 209.5 144.160156 c 0.277344 0 0.5 0.222656 0.5 0.5 v 1 c 0 0.277344 -0.222656 0.5 -0.5 0.5 s -0.5 -0.222656 -0.5 -0.5 v -1 c 0 -0.277344 0.222656 -0.5 0.5 -0.5 z m 0 0"/></g><g id="g2961" clip-path="url(#w)" mask="url(#v)" transform="matrix(1 0 0 1 -540 -520)"><path id="path2959" fill="#2e3436" d="m 206.5 144.160156 c 0.277344 0 0.5 0.222656 0.5 0.5 v 1 c 0 0.277344 -0.222656 0.5 -0.5 0.5 s -0.5 -0.222656 -0.5 -0.5 v -1 c 0 -0.277344 0.222656 -0.5 0.5 -0.5 z m 0 0"/></g><g id="g2965" clip-path="url(#y)" mask="url(#x)" transform="matrix(1 0 0 1 -540 -520)"><path id="path2963" fill="#2e3436" d="m 229.5 143.160156 c -0.546875 0 -1 0.457032 -1 1 c 0 0.546875 0.453125 1 1 1 s 1 -0.453125 1 -1 c 0 -0.542968 -0.453125 -1 -1 -1 z m 0 0"/></g><g id="g2969" clip-path="url(#A)" mask="url(#z)" transform="matrix(1 0 0 1 -540 -520)"><path id="path2967" fill="#2e3436" d="m 226.453125 143.160156 c -0.519531 0 -0.953125 0.433594 -0.953125 0.953125 v 0.09375 c 0 0.519531 0.433594 0.953125 0.953125 0.953125 h 0.09375 c 0.519531 0 0.953125 -0.433594 0.953125 -0.953125 v -0.09375 c 0 -0.519531 -0.433594 -0.953125 -0.953125 -0.953125 z m 0 0"/></g><path style="color:#000;fill:#2e3436;stroke-width:.983946;-inkscape-stroke:none" id="path109" d="m 1.2661311,4.9001837 c -0.52387014,0 -0.95511909,0.4331726 -0.95511909,0.9570407 v 6.1208336 c 10e-9,0.523869 0.43125008,0.957041 0.95511909,0.957041 h 6.1227551 c 0.523869,0 0.9551192,-0.433172 0.9551192,-0.957041 V 5.8572244 c 0,-0.5238681 -0.431249,-0.9570407 -0.9551192,-0.9570407 z M 1.6101277,6.2012211 H 7.0429679 V 11.634061 H 1.6101277 Z"/><path style="color:#000;fill:#2e3436;stroke-width:.983946;-inkscape-stroke:none" id="path109-6" d="m 8.0000087,0.30907812 c -2.7159646,0 -4.9351021,2.21913738 -4.9351021,4.93510208 0,2.715964 2.2191374,4.9370238 4.9351021,4.9370238 2.7159653,0 4.9351023,-2.2210598 4.9351023,-4.9370238 0,-2.7159647 -2.219137,-4.93510208 -4.9351023,-4.93510208 z m 0,1.34523808 c 1.9802181,0 3.5917863,1.6096478 3.5917863,3.589864 0,1.9802161 -1.6115682,3.5917858 -3.5917863,3.5917858 -1.9802182,0 -3.589864,-1.6115697 -3.589864,-3.5917858 0,-1.9802162 1.6096459,-3.589864 3.589864,-3.589864 z"/></svg>