<svg xmlns="http://www.w3.org/2000/svg" xmlns:svg="http://www.w3.org/2000/svg" id="svg6" width="16" height="16" fill="#bebebe" version="1.1"><g id="g829" transform="matrix(0.23491249,0,0,0.23491249,7.0621414,6.7598616)"><path id="path2" d="m 2,7 v 8 H 12 V 7 Z"/><path id="path4" d="M 7,1 C 4.5,1 3,2.5 3,5 V 8 H 5 V 5 C 5,4 5.5,3 7,3 8.5,3 9,4 9,5 v 3 h 2 V 5 C 11,2.5 9.5,1 7,1 Z"/></g><path style="color:#000;fill:#bebebe;stroke-width:.693361;-inkscape-stroke:none" id="rect3326" d="M 5.1466558,3.111261 V 3.3888764 11.986828 H 11.942138 V 3.111261 Z M 5.7018865,3.6664917 H 11.386908 V 11.431596 H 5.7018865 Z"/><path style="color:#000;fill:#bebebe;stroke-width:.693361;stroke-dasharray:1.54063,1.54063;-inkscape-stroke:none" id="rect3432" d="M 3.3441871,5.2130125 V 5.4689603 H 3.0868852 V 6.8597455 H 3.6014893 V 5.7262623 H 4.8852911 V 5.2130125 Z m 3.0808536,0 V 5.7262623 H 7.9661445 V 5.2130125 Z m 3.0822076,0 V 5.7262623 H 11.046998 V 5.2130125 Z M 11.407221,6.3925392 V 7.933643 h 0.514604 V 6.3925392 Z M 3.0868852,8.3994952 V 9.9405986 H 3.6014893 V 8.3994952 Z m 8.3203358,1.0738975 v 1.5411043 h 0.514604 V 9.4733927 Z m -8.0630339,1.9798713 0.027084,0.02708 H 3.0868852 v 0.486165 H 4.6564277 V 11.45326 Z m 2.8533444,0 v 0.51325 h 1.5397496 v -0.51325 z m 3.0808534,0 v 0.51325 h 1.5411041 v -0.51325 z"/><path style="color:#000;fill:#bebebe;stroke-width:.693361;-inkscape-stroke:none" id="path5912" d="m 5.2861406,12.264443 v 0.624296 h 6.5165134 v -0.624296 h -0.276261 v 0.346681 H 5.5624017 v -0.346681 z"/><path style="color:#000;fill:#bebebe;stroke-width:.693361;-inkscape-stroke:none" id="path5912-3" d="M 12.288819,3.2507458 V 3.5283611 H 12.6355 v 8.0427199 h -0.346681 v 0.277616 h 0.624296 V 3.2507458 Z"/></svg>