<svg xmlns="http://www.w3.org/2000/svg" xmlns:svg="http://www.w3.org/2000/svg" id="svg38" width="16" height="16" version="1.1" viewBox="0 0 16 16"><g id="g930" transform="matrix(0.77812823,0,0,0.77812823,1.3933454,1.7749742)"><path id="path18" d="m 4.5779753,8.4849008 h 2.3772662 c 0.6546765,0 1.1886331,0.5339575 1.1886331,1.1886345 v 2.3772637 c 0,0.654677 -0.5339566,1.188634 -1.1886331,1.188634 H 4.5779753 c -0.6546765,0 -1.1886331,-0.533957 -1.1886331,-1.188634 V 9.6735353 c 0,-0.654677 0.5339566,-1.1886345 1.1886331,-1.1886345 z m 0,0" style="fill:#2e3436;fill-opacity:.327168;stroke-width:1.18863"/><path id="path20" d="m 5.109276,4.2050012 h 0.7987925 c 0.4399597,0 0.7987924,0.3588327 0.7987924,0.7987924 V 5.802586 c 0,0.4399597 -0.3588327,0.7987924 -0.7987924,0.7987924 H 5.109276 c -0.4399597,0 -0.7987924,-0.3588327 -0.7987924,-0.7987924 V 5.0037936 c 0,-0.4399597 0.3588327,-0.7987924 0.7987924,-0.7987924 z m 0,0" style="fill:#2e3436;fill-opacity:.327168;stroke-width:.798793"/><path id="path22" d="m 11.19517,2.4084531 h 1.597584 c 0.43996,0 0.798793,0.3588327 0.798793,0.7987924 v 1.5975848 c 0,0.4399597 -0.358833,0.7987924 -0.798793,0.7987924 H 11.19517 c -0.43996,0 -0.798793,-0.3588327 -0.798793,-0.7987924 V 3.2072455 c 0,-0.4399597 0.358833,-0.7987924 0.798793,-0.7987924 z m 0,0" style="fill:#2e3436;fill-opacity:.327168;stroke-width:.798793"/><path id="path34" fill-opacity=".327" d="m 11.993961,11.19517 h 0.798793 c 0.43996,0 0.798793,0.358833 0.798793,0.798791 v 0.798793 c 0,0.43996 -0.358833,0.798793 -0.798793,0.798793 h -0.798793 c -0.439958,0 -0.798791,-0.358833 -0.798791,-0.798793 v -0.798793 c 0,-0.439958 0.358833,-0.798791 0.798791,-0.798791 z m 0,0" style="fill:#2e3436;stroke-width:.798793"/></g></svg>