<svg xmlns="http://www.w3.org/2000/svg" xmlns:svg="http://www.w3.org/2000/svg" id="svg163" width="16" height="16" version="1.1" viewBox="0 0 16 16"><filter id="a" width="1" height="1" x="0" y="0"><feColorMatrix id="feColorMatrix2" in="SourceGraphic" type="matrix" values="0 0 0 0 1 0 0 0 0 1 0 0 0 0 1 0 0 0 1 0"/></filter><mask id="b"><g id="g7" filter="url(#a)"><path id="path5" fill-opacity=".3" d="m 0 0 h 16 v 16 h -16 z"/></g></mask><clipPath id="c"><path id="path10" d="m 0 0 h 1024 v 800 h -1024 z"/></clipPath><mask id="d"><g id="g15" filter="url(#a)"><path id="path13" fill-opacity=".05" d="m 0 0 h 16 v 16 h -16 z"/></g></mask><clipPath id="e"><path id="path18" d="m 0 0 h 1024 v 800 h -1024 z"/></clipPath><mask id="f"><g id="g23" filter="url(#a)"><path id="path21" fill-opacity=".05" d="m 0 0 h 16 v 16 h -16 z"/></g></mask><clipPath id="g"><path id="path26" d="m 0 0 h 1024 v 800 h -1024 z"/></clipPath><mask id="h"><g id="g31" filter="url(#a)"><path id="path29" fill-opacity=".05" d="m 0 0 h 16 v 16 h -16 z"/></g></mask><clipPath id="i"><path id="path34" d="m 0 0 h 1024 v 800 h -1024 z"/></clipPath><mask id="j"><g id="g39" filter="url(#a)"><path id="path37" fill-opacity=".05" d="m 0 0 h 16 v 16 h -16 z"/></g></mask><clipPath id="k"><path id="path42" d="m 0 0 h 1024 v 800 h -1024 z"/></clipPath><mask id="l"><g id="g47" filter="url(#a)"><path id="path45" fill-opacity=".05" d="m 0 0 h 16 v 16 h -16 z"/></g></mask><clipPath id="m"><path id="path50" d="m 0 0 h 1024 v 800 h -1024 z"/></clipPath><mask id="n"><g id="g55" filter="url(#a)"><path id="path53" fill-opacity=".05" d="m 0 0 h 16 v 16 h -16 z"/></g></mask><clipPath id="o"><path id="path58" d="m 0 0 h 1024 v 800 h -1024 z"/></clipPath><mask id="p"><g id="g63" filter="url(#a)"><path id="path61" fill-opacity=".3" d="m 0 0 h 16 v 16 h -16 z"/></g></mask><clipPath id="q"><path id="path66" d="m 0 0 h 1024 v 800 h -1024 z"/></clipPath><mask id="r"><g id="g71" filter="url(#a)"><path id="path69" fill-opacity=".5" d="m 0 0 h 16 v 16 h -16 z"/></g></mask><clipPath id="s"><path id="path74" d="m 0 0 h 1024 v 800 h -1024 z"/></clipPath><mask id="t"><g id="g79" filter="url(#a)"><path id="path77" fill-opacity=".4" d="m 0 0 h 16 v 16 h -16 z"/></g></mask><clipPath id="u"><path id="path82" d="m 0 0 h 1024 v 800 h -1024 z"/></clipPath><mask id="v"><g id="g87" filter="url(#a)"><path id="path85" fill-opacity=".4" d="m 0 0 h 16 v 16 h -16 z"/></g></mask><clipPath id="w"><path id="path90" d="m 0 0 h 1024 v 800 h -1024 z"/></clipPath><mask id="x"><g id="g95" filter="url(#a)"><path id="path93" fill-opacity=".5" d="m 0 0 h 16 v 16 h -16 z"/></g></mask><clipPath id="y"><path id="path98" d="m 0 0 h 1024 v 800 h -1024 z"/></clipPath><mask id="z"><g id="g103" filter="url(#a)"><path id="path101" fill-opacity=".5" d="m 0 0 h 16 v 16 h -16 z"/></g></mask><clipPath id="A"><path id="path106" d="m 0 0 h 1024 v 800 h -1024 z"/></clipPath><g id="g113" clip-path="url(#c)" mask="url(#b)" transform="matrix(1 0 0 1 -560 -500)"><path id="path111" fill="#2e3436" d="m 562.460938 212.058594 h 10.449218 c -1.183594 0.492187 -1.296875 2.460937 0 3 h -10.449218 z m 0 0"/></g><g id="g117" clip-path="url(#e)" mask="url(#d)" transform="matrix(1 0 0 1 -560 -500)"><path id="path115" fill="#2e3436" fill-rule="evenodd" d="m 16 632 h 1 v 1 h -1 z m 0 0"/></g><g id="g121" clip-path="url(#g)" mask="url(#f)" transform="matrix(1 0 0 1 -560 -500)"><path id="path119" fill="#2e3436" fill-rule="evenodd" d="m 17 631 h 1 v 1 h -1 z m 0 0"/></g><g id="g125" clip-path="url(#i)" mask="url(#h)" transform="matrix(1 0 0 1 -560 -500)"><path id="path123" fill="#2e3436" fill-rule="evenodd" d="m 18 634 h 1 v 1 h -1 z m 0 0"/></g><g id="g129" clip-path="url(#k)" mask="url(#j)" transform="matrix(1 0 0 1 -560 -500)"><path id="path127" fill="#2e3436" fill-rule="evenodd" d="m 16 634 h 1 v 1 h -1 z m 0 0"/></g><g id="g133" clip-path="url(#m)" mask="url(#l)" transform="matrix(1 0 0 1 -560 -500)"><path id="path131" fill="#2e3436" fill-rule="evenodd" d="m 17 635 h 1 v 1 h -1 z m 0 0"/></g><g id="g137" clip-path="url(#o)" mask="url(#n)" transform="matrix(1 0 0 1 -560 -500)"><path id="path135" fill="#2e3436" fill-rule="evenodd" d="m 19 635 h 1 v 1 h -1 z m 0 0"/></g><g id="g141" clip-path="url(#q)" mask="url(#p)" transform="matrix(1 0 0 1 -560 -500)"><path id="path139" fill="#2e3436" d="m 136 660 v 7 h 7 v -7 z m 0 0"/></g><g id="g145" clip-path="url(#s)" mask="url(#r)" transform="matrix(1 0 0 1 -560 -500)"><path id="path143" fill="#2e3436" d="m 199 642 h 3 v 12 h -3 z m 0 0"/></g><g id="g149" clip-path="url(#u)" mask="url(#t)" transform="matrix(1 0 0 1 -560 -500)"><path id="path147" fill="#2e3436" d="m 209.5 144.160156 c 0.277344 0 0.5 0.222656 0.5 0.5 v 1 c 0 0.277344 -0.222656 0.5 -0.5 0.5 s -0.5 -0.222656 -0.5 -0.5 v -1 c 0 -0.277344 0.222656 -0.5 0.5 -0.5 z m 0 0"/></g><g id="g153" clip-path="url(#w)" mask="url(#v)" transform="matrix(1 0 0 1 -560 -500)"><path id="path151" fill="#2e3436" d="m 206.5 144.160156 c 0.277344 0 0.5 0.222656 0.5 0.5 v 1 c 0 0.277344 -0.222656 0.5 -0.5 0.5 s -0.5 -0.222656 -0.5 -0.5 v -1 c 0 -0.277344 0.222656 -0.5 0.5 -0.5 z m 0 0"/></g><g id="g157" clip-path="url(#y)" mask="url(#x)" transform="matrix(1 0 0 1 -560 -500)"><path id="path155" fill="#2e3436" d="m 229.5 143.160156 c -0.546875 0 -1 0.457032 -1 1 c 0 0.546875 0.453125 1 1 1 s 1 -0.453125 1 -1 c 0 -0.542968 -0.453125 -1 -1 -1 z m 0 0"/></g><g id="g161" clip-path="url(#A)" mask="url(#z)" transform="matrix(1 0 0 1 -560 -500)"><path id="path159" fill="#2e3436" d="m 226.453125 143.160156 c -0.519531 0 -0.953125 0.433594 -0.953125 0.953125 v 0.09375 c 0 0.519531 0.433594 0.953125 0.953125 0.953125 h 0.09375 c 0.519531 0 0.953125 -0.433594 0.953125 -0.953125 v -0.09375 c 0 -0.519531 -0.433594 -0.953125 -0.953125 -0.953125 z m 0 0"/></g><g id="g5459" transform="matrix(0.86016576,0,0,0.86016576,1.1186798,1.1186905)"><path style="color:#000;fill:#2e3436;stroke-linecap:square;stroke-linejoin:round;stroke-dasharray:3.45246,1.72623;-inkscape-stroke:none" id="rect5330" d="M 4.0097656,2.8359375 3.578125,2.8574219 H 3.1679688 v 0.1347656 a 0.43160016,0.43160016 0 0 0 -0.00781,0.00586 l -0.023437,0.017578 a 0.43160016,0.43160016 0 0 0 -0.033203,0.027344 L 3.0820313,3.0625 A 0.43160016,0.43160016 0 0 0 3.0527343,3.091797 L 3.03125,3.1152344 a 0.43160016,0.43160016 0 0 0 -0.025391,0.03125 l -0.019531,0.025391 a 0.43160016,0.43160016 0 0 0 -0.023437,0.035156 l -0.015625,0.025391 a 0.43160016,0.43160016 0 0 0 -0.019531,0.037109 l -0.013672,0.027344 a 0.43160016,0.43160016 0 0 0 -0.017578,0.039063 l -0.00977,0.03125 A 0.43160016,0.43160016 0 0 0 2.8730469,3.40625 l -0.00781,0.03125 a 0.43160016,0.43160016 0 0 0 -0.00781,0.042969 l -0.00391,0.03125 a 0.43160016,0.43160016 0 0 0 -0.00586,0.042969 l -0.00195,0.033203 a 0.43160016,0.43160016 0 0 0 0,0.021484 V 4.0800781 4.5117187 H 3.7089844 V 4.0800781 3.71875 h 3.34375 0.4316406 V 2.8574219 H 7.0527344 4.0117187 Z m 4.3378907,0.021484 V 3.71875 h 0.4296875 3.4531252 0.43164 V 2.8574219 h -0.43164 -3.4531252 z m 3.9433597,1.3710937 v 0.4316406 3.4531251 0.4316406 h 0.863281 V 8.1132813 4.6601562 4.2285156 Z M 2.8457031,5.375 v 0.4316406 3.453125 0.4296875 H 3.7089844 V 9.2597656 5.8066406 5.375 Z M 12.291016,9.4082031 V 9.8398438 12.300781 H 12.025391 11.59375 v 0.863282 h 0.431641 0.375 a 0.43160016,0.43160016 0 0 0 0.02148,0 l 0.0332,-0.002 a 0.43160016,0.43160016 0 0 0 0.04297,-0.0039 l 0.03125,-0.0059 a 0.43160016,0.43160016 0 0 0 0.04297,-0.0078 l 0.03125,-0.0078 a 0.43160016,0.43160016 0 0 0 0.04101,-0.01367 l 0.0293,-0.0098 a 0.43160016,0.43160016 0 0 0 0.03906,-0.01563 l 0.02734,-0.01367 a 0.43160016,0.43160016 0 0 0 0.03711,-0.02148 l 0.02734,-0.01563 a 0.43160016,0.43160016 0 0 0 0.03516,-0.02344 l 0.02344,-0.01758 a 0.43160016,0.43160016 0 0 0 0.0332,-0.02734 l 0.02149,-0.01953 a 0.43160016,0.43160016 0 0 0 0.0293,-0.0293 l 0.02148,-0.02344 a 0.43160016,0.43160016 0 0 0 0.02539,-0.03125 l 0.01953,-0.02539 a 0.43160016,0.43160016 0 0 0 0.02344,-0.03516 l 0.01563,-0.02539 a 0.43160016,0.43160016 0 0 0 0.01953,-0.03711 l 0.01367,-0.0293 a 0.43160016,0.43160016 0 0 0 0.01758,-0.03906 l 0.0098,-0.0293 a 0.43160016,0.43160016 0 0 0 0.01367,-0.04102 l 0.0078,-0.03125 a 0.43160016,0.43160016 0 0 0 0.0078,-0.04101 l 0.0039,-0.0332 a 0.43160016,0.43160016 0 0 0 0.0059,-0.04297 l 0.002,-0.0332 a 0.43160016,0.43160016 0 0 0 0,-0.02149 V 9.8398438 9.4082031 Z M 2.8457031,10.552734 v 0.431641 1.425781 a 0.43160016,0.43160016 0 0 0 0,0.02149 l 0.00195,0.0332 a 0.43160016,0.43160016 0 0 0 0.00586,0.04297 l 0.00391,0.0332 a 0.43160016,0.43160016 0 0 0 0.00781,0.04101 l 0.00781,0.03125 a 0.43160016,0.43160016 0 0 0 0.013672,0.04102 l 0.00977,0.0293 a 0.43160016,0.43160016 0 0 0 0.017578,0.03906 l 0.013672,0.0293 a 0.43160016,0.43160016 0 0 0 0.019531,0.03711 l 0.015625,0.02539 a 0.43160016,0.43160016 0 0 0 0.023437,0.03516 l 0.019531,0.02539 a 0.43160016,0.43160016 0 0 0 0.025391,0.03125 l 0.021484,0.02344 a 0.43160016,0.43160016 0 0 0 0.029297,0.0293 l 0.021484,0.01953 a 0.43160016,0.43160016 0 0 0 0.033203,0.02734 l 0.023437,0.01758 a 0.43160016,0.43160016 0 0 0 0.035156,0.02344 l 0.027344,0.01563 a 0.43160016,0.43160016 0 0 0 0.037109,0.02148 l 0.027344,0.01367 a 0.43160016,0.43160016 0 0 0 0.039063,0.01563 l 0.029297,0.0098 a 0.43160016,0.43160016 0 0 0 0.041016,0.01367 l 0.03125,0.0078 a 0.43160016,0.43160016 0 0 0 0.042969,0.0078 l 0.03125,0.0059 a 0.43160016,0.43160016 0 0 0 0.042969,0.0039 l 0.033203,0.002 a 0.43160016,0.43160016 0 0 0 0.021484,0 H 5.1210937 5.5527344 V 12.300781 H 5.1210937 3.7089844 v -1.316406 -0.431641 z m 3.5683594,1.748047 v 0.863282 h 0.4316406 3.4531249 0.431641 V 12.300781 H 10.298828 6.8457031 Z"/></g></svg>