<svg xmlns="http://www.w3.org/2000/svg" xmlns:svg="http://www.w3.org/2000/svg" id="svg38" width="16" height="16" version="1.1" viewBox="0 0 16 16"><g id="g36" fill="#2e3436" transform="matrix(0.55985806,0,0,0.55985806,3.5211355,3.5211355)"><path id="path2" d="M 0,0 H 3 V 3 H 0 Z m 0,0"/><path id="path4" d="m 13,0 h 3 v 3 h -3 z m 0,0"/><path id="path6" d="m 0,13 h 3 v 3 H 0 Z m 0,0"/><path id="path8" d="m 13,13 h 3 v 3 h -3 z m 0,0"/><path id="path10" d="M 0,4 H 2 V 8 H 0 Z m 0,0"/><path id="path12" d="m 0,9 h 2 v 3 H 0 Z m 0,0"/><path id="path14" d="m 14,4 h 2 v 3 h -2 z m 0,0"/><path id="path16" d="m 14,8 h 2 v 4 h -2 z m 0,0"/><g id="g24" fill-opacity=".327"><path id="path18" d="m 5,8 h 2 c 0.550781,0 1,0.449219 1,1 v 2 c 0,0.550781 -0.449219,1 -1,1 H 5 C 4.449219,12 4,11.550781 4,11 V 9 C 4,8.449219 4.449219,8 5,8 Z m 0,0"/><path id="path20" d="M 5,4 H 6 C 6.550781,4 7,4.449219 7,5 V 6 C 7,6.550781 6.550781,7 6,7 H 5 C 4.449219,7 4,6.550781 4,6 V 5 C 4,4.449219 4.449219,4 5,4 Z m 0,0"/><path id="path22" d="m 9,4 h 2 c 0.550781,0 1,0.449219 1,1 v 2 c 0,0.550781 -0.449219,1 -1,1 H 9 C 8.449219,8 8,7.550781 8,7 V 5 C 8,4.449219 8.449219,4 9,4 Z m 0,0"/></g><path id="path26" d="M 12,0 V 2 H 8 V 0 Z m 0,0"/><path id="path28" d="M 7,0 V 2 H 4 V 0 Z m 0,0"/><path id="path30" d="m 12,14 v 2 H 9 v -2 z m 0,0"/><path id="path32" d="m 8,14 v 2 H 4 v -2 z m 0,0"/><path id="path34" fill-opacity=".327" d="m 10,9 h 1 c 0.550781,0 1,0.449219 1,1 v 1 c 0,0.550781 -0.449219,1 -1,1 H 10 C 9.449219,12 9,11.550781 9,11 V 10 C 9,9.449219 9.449219,9 10,9 Z m 0,0"/></g></svg>