<svg xmlns="http://www.w3.org/2000/svg" xmlns:svg="http://www.w3.org/2000/svg" id="svg169" width="16" height="16" version="1.1" viewBox="0 0 16 16"><filter id="a" width="1" height="1" x="0" y="0"><feColorMatrix id="feColorMatrix2" in="SourceGraphic" type="matrix" values="0 0 0 0 1 0 0 0 0 1 0 0 0 0 1 0 0 0 1 0"/></filter><mask id="b"><g id="g7" filter="url(#a)"><path id="path5" fill-opacity=".3" d="m 0 0 h 16 v 16 h -16 z"/></g></mask><clipPath id="c"><path id="path10" d="m 0 0 h 1024 v 800 h -1024 z"/></clipPath><mask id="d"><g id="g15" filter="url(#a)"><path id="path13" fill-opacity=".05" d="m 0 0 h 16 v 16 h -16 z"/></g></mask><clipPath id="e"><path id="path18" d="m 0 0 h 1024 v 800 h -1024 z"/></clipPath><mask id="f"><g id="g23" filter="url(#a)"><path id="path21" fill-opacity=".05" d="m 0 0 h 16 v 16 h -16 z"/></g></mask><clipPath id="g"><path id="path26" d="m 0 0 h 1024 v 800 h -1024 z"/></clipPath><mask id="h"><g id="g31" filter="url(#a)"><path id="path29" fill-opacity=".05" d="m 0 0 h 16 v 16 h -16 z"/></g></mask><clipPath id="i"><path id="path34" d="m 0 0 h 1024 v 800 h -1024 z"/></clipPath><mask id="j"><g id="g39" filter="url(#a)"><path id="path37" fill-opacity=".05" d="m 0 0 h 16 v 16 h -16 z"/></g></mask><clipPath id="k"><path id="path42" d="m 0 0 h 1024 v 800 h -1024 z"/></clipPath><mask id="l"><g id="g47" filter="url(#a)"><path id="path45" fill-opacity=".05" d="m 0 0 h 16 v 16 h -16 z"/></g></mask><clipPath id="m"><path id="path50" d="m 0 0 h 1024 v 800 h -1024 z"/></clipPath><mask id="n"><g id="g55" filter="url(#a)"><path id="path53" fill-opacity=".05" d="m 0 0 h 16 v 16 h -16 z"/></g></mask><clipPath id="o"><path id="path58" d="m 0 0 h 1024 v 800 h -1024 z"/></clipPath><mask id="p"><g id="g63" filter="url(#a)"><path id="path61" fill-opacity=".3" d="m 0 0 h 16 v 16 h -16 z"/></g></mask><clipPath id="q"><path id="path66" d="m 0 0 h 1024 v 800 h -1024 z"/></clipPath><mask id="r"><g id="g71" filter="url(#a)"><path id="path69" fill-opacity=".5" d="m 0 0 h 16 v 16 h -16 z"/></g></mask><clipPath id="s"><path id="path74" d="m 0 0 h 1024 v 800 h -1024 z"/></clipPath><mask id="t"><g id="g79" filter="url(#a)"><path id="path77" fill-opacity=".4" d="m 0 0 h 16 v 16 h -16 z"/></g></mask><clipPath id="u"><path id="path82" d="m 0 0 h 1024 v 800 h -1024 z"/></clipPath><mask id="v"><g id="g87" filter="url(#a)"><path id="path85" fill-opacity=".4" d="m 0 0 h 16 v 16 h -16 z"/></g></mask><clipPath id="w"><path id="path90" d="m 0 0 h 1024 v 800 h -1024 z"/></clipPath><mask id="x"><g id="g95" filter="url(#a)"><path id="path93" fill-opacity=".5" d="m 0 0 h 16 v 16 h -16 z"/></g></mask><clipPath id="y"><path id="path98" d="m 0 0 h 1024 v 800 h -1024 z"/></clipPath><mask id="z"><g id="g103" filter="url(#a)"><path id="path101" fill-opacity=".5" d="m 0 0 h 16 v 16 h -16 z"/></g></mask><clipPath id="A"><path id="path106" d="m 0 0 h 1024 v 800 h -1024 z"/></clipPath><path id="path5577" d="M 0 0 L 0 0.05859375 L 0 2.6425781 L 2.3867188 0 L 0.052734375 0 L 0 0 z M 4.7207031 0 L 3.4550781 1.4003906 L 5.7890625 1.4003906 L 7.0527344 0 L 4.7207031 0 z M 9.3886719 0 L 8.125 1.4003906 L 10.460938 1.4003906 L 11.724609 0 L 9.3886719 0 z M 14.058594 0 L 12.794922 1.4003906 L 14.599609 1.4003906 L 14.599609 1.9863281 L 16 0.43554688 L 16 0 L 14.058594 0 z M 16 3.0195312 L 14.599609 4.5703125 L 14.599609 7.15625 L 16 5.6054688 L 16 3.0195312 z M 1.4003906 3.6757812 L 0 5.2265625 L 0 7.8105469 L 1.4003906 6.2597656 L 1.4003906 3.6757812 z M 16 8.1894531 L 14.599609 9.7402344 L 14.599609 12.324219 L 16 10.773438 L 16 8.1894531 z M 1.4003906 8.84375 L 0 10.394531 L 0 12.980469 L 1.4003906 11.429688 L 1.4003906 8.84375 z M 16 13.357422 L 13.613281 16 L 15.947266 16 L 16 16 L 16 15.941406 L 16 13.357422 z M 1.4003906 14.013672 L 0 15.564453 L 0 16 L 1.9414062 16 L 3.2050781 14.599609 L 1.4003906 14.599609 L 1.4003906 14.013672 z M 5.5390625 14.599609 L 4.2753906 16 L 6.6113281 16 L 7.875 14.599609 L 5.5390625 14.599609 z M 10.210938 14.599609 L 8.9472656 16 L 11.279297 16 L 12.544922 14.599609 L 10.210938 14.599609 z" style="fill:#2e3436;fill-opacity:1;stroke-width:2.576"/><g id="g111" clip-path="url(#c)" mask="url(#b)" transform="matrix(1 0 0 1 -156 -620)"><path id="path109" fill="#2e3436" d="m 562.460938 212.058594 h 10.449218 c -1.183594 0.492187 -1.296875 2.460937 0 3 h -10.449218 z m 0 0"/></g><g id="g115" clip-path="url(#e)" mask="url(#d)" transform="matrix(1 0 0 1 -156 -620)"><path id="path113" fill="#2e3436" fill-rule="evenodd" d="m 16 632 h 1 v 1 h -1 z m 0 0"/></g><g id="g119" clip-path="url(#g)" mask="url(#f)" transform="matrix(1 0 0 1 -156 -620)"><path id="path117" fill="#2e3436" fill-rule="evenodd" d="m 17 631 h 1 v 1 h -1 z m 0 0"/></g><g id="g123" clip-path="url(#i)" mask="url(#h)" transform="matrix(1 0 0 1 -156 -620)"><path id="path121" fill="#2e3436" fill-rule="evenodd" d="m 18 634 h 1 v 1 h -1 z m 0 0"/></g><g id="g127" clip-path="url(#k)" mask="url(#j)" transform="matrix(1 0 0 1 -156 -620)"><path id="path125" fill="#2e3436" fill-rule="evenodd" d="m 16 634 h 1 v 1 h -1 z m 0 0"/></g><g id="g131" clip-path="url(#m)" mask="url(#l)" transform="matrix(1 0 0 1 -156 -620)"><path id="path129" fill="#2e3436" fill-rule="evenodd" d="m 17 635 h 1 v 1 h -1 z m 0 0"/></g><g id="g135" clip-path="url(#o)" mask="url(#n)" transform="matrix(1 0 0 1 -156 -620)"><path id="path133" fill="#2e3436" fill-rule="evenodd" d="m 19 635 h 1 v 1 h -1 z m 0 0"/></g><g id="g143" fill="#2e3436" fill-rule="evenodd" transform="matrix(0.8911085,0,0,0.81000352,0.54241511,1.5026123)"><path id="path137" d="M 10.613281,5.40625 6.390625,11.066406 4.699219,12.5625 4,12 4.996094,9.945312 9.214844,4.285156 Z m 0,0"/><path id="path139" d="m 4,12.574219 c 0,0 -1.476562,0.667969 -1.464844,2.078125 0.015625,1.761718 2.660156,1.84375 2.742188,0.285156 C 5.324219,14.046875 4,12.574219 4,12.574219 Z m 0,0"/><path id="path141" d="M 6.644531,4.429688 11.296875,7.957031 12,7.03125 10.605469,5.972656 C 13.410156,5.179688 15.324219,1.800781 13.464844,0.386719 11.605469,-1.023438 8.761719,1.652344 8.746094,4.5625 L 7.351562,3.503906 Z m 0,0"/></g><g id="g147" clip-path="url(#q)" mask="url(#p)" transform="matrix(1 0 0 1 -156 -620)"><path id="path145" fill="#2e3436" d="m 136 660 v 7 h 7 v -7 z m 0 0"/></g><g id="g151" clip-path="url(#s)" mask="url(#r)" transform="matrix(1 0 0 1 -156 -620)"><path id="path149" fill="#2e3436" d="m 199 642 h 3 v 12 h -3 z m 0 0"/></g><g id="g155" clip-path="url(#u)" mask="url(#t)" transform="matrix(1 0 0 1 -156 -620)"><path id="path153" fill="#2e3436" d="m 209.5 144.160156 c 0.277344 0 0.5 0.222656 0.5 0.5 v 1 c 0 0.277344 -0.222656 0.5 -0.5 0.5 s -0.5 -0.222656 -0.5 -0.5 v -1 c 0 -0.277344 0.222656 -0.5 0.5 -0.5 z m 0 0"/></g><g id="g159" clip-path="url(#w)" mask="url(#v)" transform="matrix(1 0 0 1 -156 -620)"><path id="path157" fill="#2e3436" d="m 206.5 144.160156 c 0.277344 0 0.5 0.222656 0.5 0.5 v 1 c 0 0.277344 -0.222656 0.5 -0.5 0.5 s -0.5 -0.222656 -0.5 -0.5 v -1 c 0 -0.277344 0.222656 -0.5 0.5 -0.5 z m 0 0"/></g><g id="g163" clip-path="url(#y)" mask="url(#x)" transform="matrix(1 0 0 1 -156 -620)"><path id="path161" fill="#2e3436" d="m 229.5 143.160156 c -0.546875 0 -1 0.457032 -1 1 c 0 0.546875 0.453125 1 1 1 s 1 -0.453125 1 -1 c 0 -0.542968 -0.453125 -1 -1 -1 z m 0 0"/></g><g id="g167" clip-path="url(#A)" mask="url(#z)" transform="matrix(1 0 0 1 -156 -620)"><path id="path165" fill="#2e3436" d="m 226.453125 143.160156 c -0.519531 0 -0.953125 0.433594 -0.953125 0.953125 v 0.09375 c 0 0.519531 0.433594 0.953125 0.953125 0.953125 h 0.09375 c 0.519531 0 0.953125 -0.433594 0.953125 -0.953125 v -0.09375 c 0 -0.519531 -0.433594 -0.953125 -0.953125 -0.953125 z m 0 0"/></g></svg>